<?xml version="1.0" encoding="UTF-8"?>
<svg version="1.1" xmlns="http://www.w3.org/2000/svg" width="288" height="288">
<path d="M0 0 C95.04 0 190.08 0 288 0 C288 95.04 288 190.08 288 288 C192.96 288 97.92 288 0 288 C0 192.96 0 97.92 0 0 Z " fill="#FEFDFE" transform="translate(0,0)"/>
<path d="M0 0 C1.32527996 0.36403561 2.65788756 0.70398805 4 1 C4.17800729 7.56493425 4.30028852 14.12924289 4.38452148 20.69604492 C4.41964699 22.92805232 4.46735957 25.15989953 4.52807617 27.39135742 C4.61334144 30.60635942 4.65276794 33.81922694 4.68359375 37.03515625 C4.71972275 38.02709488 4.75585175 39.01903351 4.79307556 40.04103088 C4.79605254 45.33628385 4.34048864 48.29504498 0.58227539 52.18530273 C-2.587968 55 -2.587968 55 -5 55 C-5 55.66 -5 56.32 -5 57 C-6.50390625 58.48046875 -6.50390625 58.48046875 -8.5625 60.1875 C-11.41864877 62.62691532 -14.23098611 65.08205924 -16.9375 67.6875 C-17.50339844 68.22761719 -18.06929688 68.76773438 -18.65234375 69.32421875 C-20.16367672 71.20352845 -20.59457446 72.6444263 -21 75 C-20.01 75 -19.02 75 -18 75 C-18 74.34 -18 73.68 -18 73 C-16.7421875 71.765625 -16.7421875 71.765625 -14.875 70.25 C-11.91463309 67.76711163 -9.16442576 65.17617878 -6.4921875 62.390625 C-5.87617676 61.7522168 -5.26016602 61.11380859 -4.62548828 60.45605469 C-3.38193174 59.15907799 -2.14834642 57.85246168 -0.92529297 56.53613281 C-0.34666504 55.93639648 0.23196289 55.33666016 0.828125 54.71875 C1.3427832 54.17154297 1.85744141 53.62433594 2.38769531 53.06054688 C4 52 4 52 6.19824219 52.33007812 C6.79282227 52.55115234 7.38740234 52.77222656 8 53 C8 53.66 8 54.32 8 55 C8.66 55 9.32 55 10 55 C11.4453125 56.46875 11.4453125 56.46875 13.125 58.5 C15.70909493 61.58354185 18.39602295 64.29963231 21.375 67 C25.40439856 70.92091475 25.80970693 73.48150084 26 79 C27.78657757 81.21370051 27.78657757 81.21370051 30.1640625 81.1953125 C30.97617188 81.17210938 31.78828125 81.14890625 32.625 81.125 C33.44226563 81.10695313 34.25953125 81.08890625 35.1015625 81.0703125 C35.72804688 81.04710938 36.35453125 81.02390625 37 81 C37.85387105 77.69432511 37.85387105 77.69432511 38 74 C36.62716577 71.45997987 36.62716577 71.45997987 34 70 C32.4221875 69.9071875 32.4221875 69.9071875 30.8125 69.8125 C25.00561262 68.57496662 21.66633587 64.53095929 18 60 C18 59.34 18 58.68 18 58 C17.34 58 16.68 58 16 58 C14.34375 56.3203125 14.34375 56.3203125 12.5 54.125 C10.71066742 52.00964496 8.95980876 49.95980876 7 48 C6.75949097 46.01315308 6.75949097 46.01315308 6.77294922 43.55029297 C6.77310028 42.62948944 6.77325134 41.70868591 6.77340698 40.75997925 C6.78372955 39.76410797 6.79405212 38.76823669 6.8046875 37.7421875 C6.8075174 36.72399933 6.81034729 35.70581116 6.81326294 34.6567688 C6.8244823 31.396061 6.84959004 28.13562516 6.875 24.875 C6.88502753 22.66797271 6.89415377 20.46094112 6.90234375 18.25390625 C6.92442732 12.83584428 6.95792205 7.41794157 7 2 C8.2670089 1.33673494 9.53756145 0.68023626 10.80957031 0.02661133 C11.5167218 -0.33969894 12.22387329 -0.70600922 12.95245361 -1.0834198 C15.63608114 -2.2847405 17.82719721 -2.4349874 20.75 -2.3125 C21.65234375 -2.28800781 22.5546875 -2.26351562 23.484375 -2.23828125 C26 -2 26 -2 30 -1 C30 4.61 30 10.22 30 16 C28.68 16.33 27.36 16.66 26 17 C25.95875 18.258125 25.9175 19.51625 25.875 20.8125 C25.85179687 21.52019531 25.82859375 22.22789063 25.8046875 22.95703125 C25.86745538 25.31359719 25.86745538 25.31359719 28 28 C31.06997072 28.39191116 33.11365285 28.47271848 35.875 27 C37.70488947 23.74686316 37.18128355 20.68609891 37 17 C35.68 16.34 34.36 15.68 33 15 C33 10.38 33 5.76 33 1 C43.79031675 2.79838613 51.05462833 7.57221699 58 16 C62.82347979 23.03522175 65.1067824 29.66203565 65.04296875 38.23046875 C65.03676514 39.31094482 65.03056152 40.3914209 65.02416992 41.50463867 C65.01619385 42.32810791 65.00821777 43.15157715 65 44 C60.60438961 44.11629782 56.20917571 44.18728634 51.8125 44.25 C50.56662109 44.28351563 49.32074219 44.31703125 48.03710938 44.3515625 C46.83505859 44.36445312 45.63300781 44.37734375 44.39453125 44.390625 C43.28956299 44.41157227 42.18459473 44.43251953 41.04614258 44.45410156 C37.33280813 43.90053884 35.79215163 42.42220882 33 40 C29.57666749 40.15922477 28.4368763 40.5631237 26 43 C25.75787127 44.98128508 25.75787127 44.98128508 25.875 47.125 C25.91625 48.40375 25.9575 49.6825 26 51 C27.2375 51.2475 28.475 51.495 29.75 51.75 C30.44609375 51.88921875 31.1421875 52.0284375 31.859375 52.171875 C34.20013707 52.23490202 34.20013707 52.23490202 35.72119141 50.0246582 C39.8585374 46.34874109 45.26979525 47.3735359 50.56982422 47.42358398 C52.5990426 47.43732424 54.62352399 47.40353731 56.65234375 47.36523438 C68.75442602 47.38318999 76.28154686 50.72550076 85.01953125 58.953125 C89.54154522 63.62676468 92.11559084 67.42220685 93 74 C88.58355402 74.11608127 84.16749983 74.1872132 79.75 74.25 C78.49574219 74.28351563 77.24148437 74.31703125 75.94921875 74.3515625 C74.14130859 74.37089844 74.14130859 74.37089844 72.296875 74.390625 C71.18666992 74.41157227 70.07646484 74.43251953 68.93261719 74.45410156 C65.34057313 73.89789094 64.35356757 72.6684174 62 70 C59.09302053 69.50368643 57.69798407 69.56676851 55.1875 71.125 C53.47150972 73.83445834 53.666272 75.86295684 54 79 C56.32528287 81.32528287 56.84665898 81.29511025 60 81.3125 C61.051875 81.33763672 61.051875 81.33763672 62.125 81.36328125 C62.74375 81.24339844 63.3625 81.12351562 64 81 C64.99 79.515 64.99 79.515 66 78 C68.88916016 77.65942383 68.88916016 77.65942383 72.5390625 77.70703125 C73.84101563 77.71669922 75.14296875 77.72636719 76.484375 77.73632812 C77.86458923 77.76139612 79.24479756 77.78679098 80.625 77.8125 C82.01300663 77.82754483 83.40102867 77.84123359 84.7890625 77.85351562 C88.19309509 77.8889743 91.59635622 77.93839702 95 78 C96.68158146 81.66864051 97.24028871 84.49416047 97.1953125 88.51953125 C97.18564453 90.0519043 97.18564453 90.0519043 97.17578125 91.61523438 C97.15064453 93.19788086 97.15064453 93.19788086 97.125 94.8125 C97.11597656 95.88693359 97.10695312 96.96136719 97.09765625 98.06835938 C97.07415306 100.71246854 97.04129575 103.35611872 97 106 C93.75030231 106.11638036 90.5011417 106.18730581 87.25 106.25 C86.32960937 106.28351563 85.40921875 106.31703125 84.4609375 106.3515625 C77.53723698 106.45190599 77.53723698 106.45190599 74.58984375 103.97265625 C74.06519531 103.32167969 73.54054687 102.67070312 73 102 C68.64943325 102.00267685 68.64943325 102.00267685 65 104 C64.58981566 108.6848478 64.58981566 108.6848478 66.125 113 C69.01807013 114.54297074 70.93640275 113.91256088 74 113 C74.99 111.515 74.99 111.515 76 110 C78.06298828 109.65942383 78.06298828 109.65942383 80.5703125 109.70703125 C81.46621094 109.71669922 82.36210937 109.72636719 83.28515625 109.73632812 C84.22230469 109.76146484 85.15945312 109.78660156 86.125 109.8125 C87.54232422 109.83280273 87.54232422 109.83280273 88.98828125 109.85351562 C91.32608779 109.88893694 93.66276237 109.93832729 96 110 C93.80434983 121.46270038 88.19515888 131.89555189 78.47265625 138.79296875 C74.72489995 141.10986362 71.35423034 143.12915393 67 144 C66.64550781 143.57332031 66.29101562 143.14664063 65.92578125 142.70703125 C62.98755923 139.25657682 60.00699304 135.96558973 56.67578125 132.890625 C56.09207764 132.34172607 55.50837402 131.79282715 54.90698242 131.22729492 C53.73980757 130.13687633 52.55668091 129.06322975 51.35668945 128.0090332 C47.31952067 124.19967821 46.28941757 121.38597305 46.10107422 115.83569336 C46.20370796 113.98132044 46.20370796 113.98132044 45 113 C43.33382885 112.95936168 41.66611905 112.957279 40 113 C41.32 113.99 42.64 114.98 44 116 C43.67 117.32 43.34 118.64 43 120 C41.68 120.33 40.36 120.66 39 121 C39 121.99 39 122.98 39 124 C39.90492188 123.91234375 40.80984375 123.8246875 41.7421875 123.734375 C45 124 45 124 47.1328125 125.765625 C47.79023438 126.58546875 48.44765625 127.4053125 49.125 128.25 C51.67015778 131.3607484 54.13579743 134.20143728 57.24609375 136.73828125 C66.04764668 144.08900046 66.04764668 144.08900046 66.8671875 150.19140625 C67.53843575 163.5719177 63.39079954 175.60012685 54.625 185.75 C46.75124905 192.49892939 39.4508719 197.48776782 29 199 C28.89207163 196.39472895 28.81275122 193.79391689 28.75 191.1875 C28.71648437 190.44951172 28.68296875 189.71152344 28.6484375 188.95117188 C28.609375 186.79296875 28.609375 186.79296875 29 183 C30.9921875 181.2109375 30.9921875 181.2109375 33 180 C33.50007794 176.45786015 33.50007794 176.45786015 33 173 C31.05667668 170.62005632 31.05667668 170.62005632 27.5 170.75 C23.94332332 170.62005632 23.94332332 170.62005632 22 173 C21.49957854 175.91538029 21.49957854 175.91538029 22 179 C22.66257812 179.54398438 23.32515625 180.08796875 24.0078125 180.6484375 C26.97983703 184.15659195 26.44146266 187.30953901 26.25 191.75 C26.23195313 192.54277344 26.21390625 193.33554688 26.1953125 194.15234375 C26.14833082 196.10208348 26.07659044 198.05119878 26 200 C19.34138861 200.4737352 15.40688263 200.35188114 10 196 C9.01 195.67 8.02 195.34 7 195 C7 179.49 7 163.98 7 148 C11.351875 147.9175 15.70375 147.835 20.1875 147.75 C21.55156982 147.71358398 22.91563965 147.67716797 24.32104492 147.63964844 C25.40490479 147.6296582 26.48876465 147.61966797 27.60546875 147.609375 C28.71043701 147.58842773 29.81540527 147.56748047 30.95385742 147.54589844 C34.66909464 148.09974481 36.18659099 149.60137127 39 152 C42.84640156 151.91383331 42.84640156 151.91383331 46 150 C46.32460261 145.96916989 46.32460261 145.96916989 46 142 C42.75173326 139.83448884 41.76905843 139.44843047 38 140 C37.41702148 140.65967773 36.83404297 141.31935547 36.23339844 141.99902344 C33.27346574 144.65092641 31.62873013 144.46469302 27.703125 144.390625 C26.07358887 144.37563965 26.07358887 144.37563965 24.41113281 144.36035156 C23.03795898 144.32393555 21.66478516 144.28751953 20.25 144.25 C13.69125 144.12625 13.69125 144.12625 7 144 C7 128.49 7 112.98 7 97 C9.97 97 12.94 97 16 97 C17.6875 99 17.6875 99 19 101 C22.45570193 101.35996895 24.70024471 101.09991843 28 100 C28.37054871 95.36018125 28.37054871 95.36018125 26.9375 91.0625 C23.88907484 89.39078298 21.39471203 89.62966778 18 90 C17.34 90.99 16.68 91.98 16 93 C12.54223544 94.03732937 9.48380469 93.86367303 6 93 C3.09842828 90.94162006 0.70752162 88.70967203 -1.7734375 86.1640625 C-3.8105018 84.18417895 -5.40332622 83.07898317 -8 82 C-5.47295673 87.21202675 -1.38226641 90.3880132 3 94 C1.47589059 97.75492877 -0.77268765 99.80785724 -3.8125 102.4375 C-4.70453125 103.22253906 -5.5965625 104.00757813 -6.515625 104.81640625 C-7.33546875 105.53699219 -8.1553125 106.25757813 -9 107 C-12.77736286 110.43854183 -12.77736286 110.43854183 -15 115 C-10.38677046 112.69338523 -7.2605279 109.34912616 -3.76953125 105.64453125 C-2 104 -2 104 0 104 C0 103.34 0 102.68 0 102 C0.66 102 1.32 102 2 102 C2 101.34 2 100.68 2 100 C2.66 100 3.32 100 4 100 C6.54042779 109.70573696 8.14097375 120.53389787 4 130 C-3.80228173 141.95701252 -15.68023026 151.66655555 -26.39848328 160.93772888 C-27.11897354 161.56244583 -27.83946381 162.18716278 -28.58178711 162.83081055 C-29.21910263 163.3731987 -29.85641815 163.91558685 -30.51304626 164.47441101 C-32.25558815 166.04058627 -32.25558815 166.04058627 -33 169 C-28.05484333 166.37288552 -24.12224511 162.73354706 -20 159 C-15.94614063 160.80473829 -13.13397514 163.45788476 -9.90234375 166.44140625 C-7.98116107 168.2044029 -7.98116107 168.2044029 -5 169 C-5 168.01 -5 167.02 -5 166 C-5.58136719 165.73960937 -6.16273438 165.47921875 -6.76171875 165.2109375 C-9.15025497 163.91871022 -10.86044288 162.50719402 -12.8125 160.625 C-13.75029297 159.74714844 -13.75029297 159.74714844 -14.70703125 158.8515625 C-16 157 -16 157 -15.69921875 154.7734375 C-15.46847656 154.18820313 -15.23773438 153.60296875 -15 153 C-14.34 153 -13.68 153 -13 153 C-12.67 152.01 -12.34 151.02 -12 150 C-11.34 150 -10.68 150 -10 150 C-10 149.34 -10 148.68 -10 148 C-9.34 148 -8.68 148 -8 148 C-7.7525 147.42765625 -7.505 146.8553125 -7.25 146.265625 C-5.80683801 143.64989389 -4.11783778 141.85226544 -2 139.75 C-1.29875 139.04359375 -0.5975 138.3371875 0.125 137.609375 C2 136 2 136 4 136 C4 155.47 4 174.94 4 195 C-5.34809741 200.19338745 -9.89242388 201.63520706 -19.98828125 199.3125 C-22.36047543 198.61459846 -24.68275534 197.86127678 -27 197 C-25.1269922 192.41471314 -21.74460157 190.07077761 -17.99609375 187 C-15.92682393 184.92668072 -15.36347822 183.8568113 -15 181 C-20.20009037 183.7857627 -23.58178279 187.68109721 -27.5 192.015625 C-30 194 -30 194 -32.53515625 193.984375 C-40.64180025 190.74685632 -45.7877232 184.39186638 -50 177 C-50.86625 175.4840625 -50.86625 175.4840625 -51.75 173.9375 C-55.29978461 165.59550617 -57.48939406 154.92229328 -55 146 C-51.77538699 140.17162004 -46.53665335 135.87644062 -41.625 131.5 C-40.3373303 130.28920126 -39.05343568 129.07437462 -37.7734375 127.85546875 C-28.83092385 119.41546193 -28.83092385 119.41546193 -26 118 C-25.505 116.515 -25.505 116.515 -25 115 C-27.95800528 115.70768358 -27.95800528 115.70768358 -31 117 C-31.2990625 117.598125 -31.598125 118.19625 -31.90625 118.8125 C-33.32592578 121.65185157 -35.2235315 123.19159843 -37.625 125.25 C-38.44226563 125.95640625 -39.25953125 126.6628125 -40.1015625 127.390625 C-41.04128906 128.18726563 -41.04128906 128.18726563 -42 129 C-46.37789915 125.33685989 -50.44711631 121.60968094 -54.32421875 117.41796875 C-56.20501892 115.82652245 -57.59441745 115.40355089 -60 115 C-57.81803833 119.50029595 -54.70088554 122.20115264 -50.9375 125.3515625 C-50.298125 125.89554688 -49.65875 126.43953125 -49 127 C-48.401875 127.48210937 -47.80375 127.96421875 -47.1875 128.4609375 C-46 130 -46 130 -45.99609375 131.859375 C-47.44812355 134.95553192 -49.60729823 136.88803374 -52.0625 139.25 C-52.98160156 140.14203125 -53.90070313 141.0340625 -54.84765625 141.953125 C-55.91306641 142.96632812 -55.91306641 142.96632812 -57 144 C-62.72574769 142.27009325 -66.46330195 139.79673177 -71 136 C-71.61230469 135.49597656 -72.22460938 134.99195313 -72.85546875 134.47265625 C-78.08044587 129.75518243 -81.88429386 123.72661727 -84 117 C-81.92351256 109.62915715 -72.55760901 103.53257841 -66.9296875 98.70703125 C-63.81053864 95.94778419 -60.90248778 92.98412025 -58 90 C-53.31758127 91.41581331 -50.56674986 94.13608995 -47.3125 97.625 C-45.57742415 99.46837407 -43.82541504 101.24219293 -42 103 C-41.34 103 -40.68 103 -40 103 C-41.65863505 98.67495164 -44.871041 95.90581175 -48.125 92.75 C-48.68832031 92.19570312 -49.25164062 91.64140625 -49.83203125 91.0703125 C-51.21686028 89.70895515 -52.60783204 88.35385141 -54 87 C-49.85519256 81.95901798 -45.40575523 77.33339301 -40.69604492 72.82104492 C-38.3616108 70.54510367 -37.04849711 69.14549134 -36 66 C-40.64338375 68.44451407 -43.92517442 71.68137703 -47.55078125 75.390625 C-48.16841843 76.01346375 -48.7860556 76.63630249 -49.42240906 77.27801514 C-51.39061255 79.26395858 -53.35199724 81.25645642 -55.3125 83.25 C-71.15040669 99.31379771 -71.15040669 99.31379771 -78 105 C-79.33445216 106.14453013 -80.66780833 107.29033952 -82 108.4375 C-83.485 109.7059375 -83.485 109.7059375 -85 111 C-89.895174 96.03924734 -87.23686468 80.75285159 -80.4609375 66.83984375 C-76.14327471 59.40159529 -69.30617178 51.98377044 -61 49 C-57.62187935 49.13362819 -56.27831468 49.75647465 -53.71875 51.99609375 C-52.9865625 52.80175781 -52.254375 53.60742188 -51.5 54.4375 C-48.4997529 57.72826398 -46.26665943 59.62535444 -42 61 C-43.93856562 57.4136536 -45.7224587 55.37339198 -49 53 C-49 52.34 -49 51.68 -49 51 C-49.928125 50.566875 -49.928125 50.566875 -50.875 50.125 C-53 49 -53 49 -55 47 C-56.40763468 34.9696338 -53.69034635 24.84212513 -46.6796875 15.05859375 C-40.88339429 7.95476463 -33.57645999 3.2294808 -25 0 C-23.33384966 -0.04148281 -21.66598109 -0.04779956 -20 0 C-18.17613204 28.40744493 -18.17613204 28.40744493 -23.52783203 35.18457031 C-25.56622571 37.26744574 -27.75981349 39.13892197 -30 41 C-30.33 41.99 -30.66 42.98 -31 44 C-25.44783047 41.47628658 -22.485656 36.79152136 -19 32 C-16.27594245 34.64622733 -13.73844905 37.27593341 -11.375 40.25 C-9.23003634 43.20737266 -9.23003634 43.20737266 -6 44 C-8.19196871 39.79142007 -10.08988939 36.90872096 -13.625 33.75 C-18.8907336 27.82544859 -17.74988784 20.42152677 -17.4375 13 C-17.4023321 11.54304394 -17.37040271 10.08600592 -17.34179688 8.62890625 C-17.26522071 5.08421485 -17.14474683 1.54263898 -17 -2 C-10.45939581 -3.7708186 -5.94086307 -3.30047948 0 0 Z " fill="#FEFDFC" transform="translate(139,45)"/>
<path d="M0 0 C5.77887369 0.80347976 9.06196144 0.03879296 14 -3 C28.1991306 -4.57768118 42.13665053 0.98010897 53.375 9.3125 C63.80802149 19.99392677 68.17256984 31.08180283 68.03515625 45.8046875 C68.01775391 46.89136719 68.01775391 46.89136719 68 48 C69.175625 48.2784375 69.175625 48.2784375 70.375 48.5625 C82.32765151 53.30234457 90.34695734 62.29711753 95.7109375 73.7421875 C102.1867462 90.10832222 101.88975868 108.51314739 95.1875 124.75 C89.78972995 135.84992563 82.19746957 144.51552511 71 150 C70.34 150 69.68 150 69 150 C69.04125 151.216875 69.0825 152.43375 69.125 153.6875 C69.06069472 167.36308895 65.93638777 181.98011317 56 192 C44.86303546 201.29219128 32.68317144 207.72645896 17.8984375 207.44140625 C13.97053471 206.84322159 11.24468235 205.27801115 8.03515625 202.99609375 C5.2860828 201.65057796 3.87249012 202.08227153 1 203 C-0.051875 203.680625 -1.10375 204.36125 -2.1875 205.0625 C-8.4328918 208.75051154 -15.22589782 207.32558572 -22 205.8125 C-35.33342469 202.1125599 -46.94466614 194.1520228 -54 182 C-57.94310632 174.3444426 -59.21662166 167.46288724 -59.6875 159 C-59.92957033 152.80447438 -59.92957033 152.80447438 -63.1640625 147.81640625 C-65.74817639 146.50639188 -65.74817639 146.50639188 -68.39453125 145.81640625 C-76.41505571 143.30322842 -81.3563278 134.60510641 -85.33203125 127.6796875 C-86.27879807 125.81452141 -87.14437747 123.90869642 -88 122 C-88.37125 121.21625 -88.7425 120.4325 -89.125 119.625 C-94.38537956 103.84386133 -93.25955499 86.92540215 -86.375 71.875 C-80.83207513 61.34206047 -72.4443499 53.51776976 -62 48 C-61.34 48 -60.68 48 -60 48 C-60.03222656 46.84242187 -60.06445312 45.68484375 -60.09765625 44.4921875 C-60.07803982 31.75271927 -55.67162281 20.89116433 -46.86328125 11.79296875 C-34.7410244 0.39000811 -15.83962788 -7.91981394 0 0 Z M-18 1 C-20.24153782 20.58640087 -20.24153782 20.58640087 -14.47216797 38.32519531 C-12.44161291 40.37755404 -10.25264513 42.1978839 -8 44 C-7.67 44.99 -7.34 45.98 -7 47 C-10.88014936 45.47940093 -12.73906562 43.13921469 -15.25 39.875 C-15.95640625 38.96492188 -16.6628125 38.05484375 -17.390625 37.1171875 C-17.92171875 36.41851562 -18.4528125 35.71984375 -19 35 C-21.72405755 37.64622733 -24.26155095 40.27593341 -26.625 43.25 C-29 46 -29 46 -32 47 C-29.97401607 43.36200287 -27.71392987 40.62729667 -24.84375 37.6328125 C-19.57481379 31.13108032 -20.08476465 24.92417762 -20.5 16.875 C-20.54022576 15.52354438 -20.57671044 14.17197201 -20.609375 12.8203125 C-20.70298867 9.54383396 -20.83399584 6.27347425 -21 3 C-32.19300519 4.31200061 -40.51119525 9.63319745 -48 18 C-54.65094666 27.78403723 -57.70573866 38.13210647 -56 50 C-54.24274224 52.46262798 -54.24274224 52.46262798 -52 54 C-51.34 54 -50.68 54 -50 54 C-50 54.66 -50 55.32 -50 56 C-48.5459375 57.2065625 -48.5459375 57.2065625 -47.0625 58.4375 C-44 61 -44 61 -43 64 C-48.60341996 61.84483848 -51.74941136 58.26698256 -55.65625 53.765625 C-57.91412657 51.68624724 -57.91412657 51.68624724 -61.02734375 52.0625 C-70.63646771 55.09297273 -78.41742437 64.33869214 -83 73 C-88.58439257 86.12770818 -90.49838995 100.25190863 -86 114 C-81.02367999 109.7877859 -76.18568388 105.46729084 -71.4375 101 C-70.72513184 100.33154053 -70.01276367 99.66308105 -69.27880859 98.97436523 C-64.81435065 94.75306845 -60.43342613 90.4579721 -56.10546875 86.09765625 C-55.6084697 85.59736908 -55.11147064 85.09708191 -54.59941101 84.58163452 C-52.13275248 82.09564941 -49.67385068 79.60251558 -47.22436523 77.09960938 C-46.32790283 76.19146484 -45.43144043 75.28332031 -44.5078125 74.34765625 C-43.71004395 73.53304932 -42.91227539 72.71844238 -42.09033203 71.87915039 C-40 70 -40 70 -37 69 C-39.62007132 74.16987252 -43.5906805 77.81513644 -47.6875 81.8125 C-48.38939453 82.50537109 -49.09128906 83.19824219 -49.81445312 83.91210938 C-51.53851041 85.61271009 -53.26707278 87.30844661 -55 89 C-51.05763986 93.69411656 -46.97842523 98.06925385 -42.5390625 102.30078125 C-41 104 -41 104 -41 106 C-45.93582902 104.00053223 -48.98329948 100.0177443 -52.5625 96.21484375 C-54.96526677 94.03156048 -55.86357297 93.31688313 -59 93 C-61.28607288 94.93529979 -63.23053654 96.81400703 -65.25 99 C-66.40953686 100.21017733 -67.57098744 101.41852402 -68.734375 102.625 C-69.57452148 103.50285156 -69.57452148 103.50285156 -70.43164062 104.3984375 C-72.93216749 106.95190205 -75.62265331 109.25462707 -78.34375 111.56640625 C-80.68864253 113.59606558 -82.84180317 115.77435951 -85 118 C-83.21168527 124.77677162 -80.5920513 129.7164398 -76 135 C-75.46246094 135.62003906 -74.92492187 136.24007812 -74.37109375 136.87890625 C-70.38568609 141.16021425 -65.6760038 145.24788792 -60 147 C-56.32570718 145.87952259 -53.92720501 143.22658145 -51.25 140.5625 C-50.45078125 139.78003906 -49.6515625 138.99757812 -48.828125 138.19140625 C-46.67970589 136.09169477 -46.67970589 136.09169477 -47 133 C-48.59414291 131.26299349 -48.59414291 131.26299349 -50.6875 129.625 C-59.63023399 122.10929803 -59.63023399 122.10929803 -61 118 C-55.97769914 119.47221435 -53.19721778 122.4489651 -49.6875 126.125 C-49.13771484 126.68832031 -48.58792969 127.25164062 -48.02148438 127.83203125 C-46.67404562 129.21462058 -45.33605727 130.60640916 -44 132 C-43.32904297 131.41992188 -43.32904297 131.41992188 -42.64453125 130.828125 C-41.73767578 130.04695313 -41.73767578 130.04695313 -40.8125 129.25 C-40.17828125 128.7034375 -39.5440625 128.156875 -38.890625 127.59375 C-37.31779514 126.26789342 -35.69559234 125.00087924 -34.0625 123.75 C-33.381875 123.1725 -32.70125 122.595 -32 122 C-32 121.34 -32 120.68 -32 120 C-29.03 119.01 -29.03 119.01 -26 118 C-27.09183717 121.2755115 -27.80192851 121.92849304 -30.375 124.0703125 C-31.096875 124.68551758 -31.81875 125.30072266 -32.5625 125.93457031 C-33.7690625 126.95695801 -33.7690625 126.95695801 -35 128 C-49.09618207 138.92334129 -49.09618207 138.92334129 -57.46875 153.80078125 C-57.74361631 158.07264232 -57.03388558 161.86005818 -56 166 C-55.81050781 166.97582031 -55.62101562 167.95164063 -55.42578125 168.95703125 C-52.67591173 180.35935644 -45.70948742 189.96579122 -35.9296875 196.25 C-34.05065743 197.12009316 -34.05065743 197.12009316 -32.10546875 196.96875 C-28.91919088 195.50270749 -26.79410095 193.02515676 -24.4375 190.5 C-19.38325688 185.12775229 -19.38325688 185.12775229 -16 184 C-17.39453142 188.52821985 -19.52882763 190.67019868 -23.125 193.6875 C-24.78397936 195.08564833 -26.41849294 196.51478396 -28 198 C-28 198.66 -28 199.32 -28 200 C-20.87465075 202.6483599 -13.58728489 204.42907968 -6 203 C-3.03 201.35 -0.06 199.7 3 198 C3 178.53 3 159.06 3 139 C-0.60772477 140.80386238 -2.47634052 142.2057949 -5.25 145 C-5.95640625 145.70125 -6.6628125 146.4025 -7.390625 147.125 C-9.21710399 148.84110768 -9.21710399 148.84110768 -9 151 C-9.66 151 -10.32 151 -11 151 C-11 151.66 -11 152.32 -11 153 C-11.99 153.33 -12.98 153.66 -14 154 C-14 154.66 -14 155.32 -14 156 C-14.66 156 -15.32 156 -16 156 C-16.89684937 157.74380357 -16.89684937 157.74380357 -17 160 C-15.20690483 162.47772969 -15.20690483 162.47772969 -12.6875 164.75 C-11.86636719 165.54921875 -11.04523438 166.3484375 -10.19921875 167.171875 C-8.22030284 169.21308115 -8.22030284 169.21308115 -6 169 C-6 169.99 -6 170.98 -6 172 C-11.53455721 169.7051836 -15.00415551 166.31503917 -19 162 C-23.69237133 163.27973764 -26.16056126 165.96884608 -29.3515625 169.44140625 C-31 171 -31 171 -34 172 C-31.4678454 166.8438888 -27.54912344 163.78780891 -23.26953125 160.12890625 C-4.42504404 145.01576855 -4.42504404 145.01576855 5.24609375 124.08203125 C5.66754176 116.97859377 4.68046509 109.89675041 3 103 C2.34 103 1.68 103 1 103 C1 103.66 1 104.32 1 105 C0.34 105 -0.32 105 -1 105 C-1 105.66 -1 106.32 -1 107 C-1.57621094 107.24621094 -2.15242188 107.49242187 -2.74609375 107.74609375 C-5.35254885 109.19613203 -7.02088339 110.89500337 -9.0625 113.0625 C-12.66783831 116.88927944 -12.66783831 116.88927944 -16 118 C-13.83420496 114.04353129 -11.33636702 111.09518155 -8.125 107.9375 C-7.28195313 107.10089844 -6.43890625 106.26429688 -5.5703125 105.40234375 C-3 103 -3 103 -0.1796875 100.81640625 C0.53960937 100.21699219 1.25890625 99.61757812 2 99 C2 98.34 2 97.68 2 97 C0.30910787 95.36738126 0.30910787 95.36738126 -1.8125 93.6875 C-4.93390392 91.04673704 -7.19011861 88.73288036 -9 85 C-4.57271969 87.52987446 -0.40245567 90.13005911 2.6875 94.25 C5.96748101 96.73214779 8.7411592 96.43955318 12.7578125 96.43359375 C13.49773437 96.29050781 14.23765625 96.14742188 15 96 C15.99 94.515 15.99 94.515 17 93 C20.39471203 92.62966778 22.88907484 92.39078298 25.9375 94.0625 C27.55479605 97.01168691 27.18630138 99.70867559 27 103 C23.99170754 103.58021574 21.06977042 104.0608423 18 104 C16.97971135 102.68212715 15.98028616 101.34789347 15 100 C12.03 100 9.06 100 6 100 C6 115.51 6 131.02 6 147 C12.55875 147.12375 12.55875 147.12375 19.25 147.25 C20.62317383 147.28641602 21.99634766 147.32283203 23.41113281 147.36035156 C25.04066895 147.37533691 25.04066895 147.37533691 26.703125 147.390625 C27.81333008 147.41157227 28.92353516 147.43251953 30.06738281 147.45410156 C33.66736566 146.89666166 34.57155413 145.59628105 37 143 C43.32142857 143.32142857 43.32142857 143.32142857 45 145 C45.14115161 147.67058851 45.04247107 150.32432238 45 153 C42.58978936 154.51754003 41.31664378 155.02316906 38.4375 154.8125 C36 154 36 154 34.73510742 152.4675293 C32.15976658 150.28934247 30.12643127 150.66019111 26.80078125 150.70703125 C25.71192627 150.71452393 24.62307129 150.7220166 23.5012207 150.72973633 C21.42780396 150.77070435 21.42780396 150.77070435 19.3125 150.8125 C14.919375 150.874375 10.52625 150.93625 6 151 C6 166.51 6 182.02 6 198 C8.64 199.32 11.28 200.64 14 202 C14.33 202.33 14.66 202.66 15 203 C16.68608966 203.07205511 18.37500659 203.08386068 20.0625 203.0625 C20.98160156 203.05347656 21.90070313 203.04445312 22.84765625 203.03515625 C23.55792969 203.02355469 24.26820313 203.01195312 25 203 C25.10812003 200.24894578 25.18734945 197.50214913 25.25 194.75 C25.28351563 193.97269531 25.31703125 193.19539062 25.3515625 192.39453125 C25.50099434 187.60621677 25.50099434 187.60621677 23.0078125 183.6484375 C22.34523438 183.10445312 21.68265625 182.56046875 21 182 C20.625 178.875 20.625 178.875 21 176 C23 174 23 174 26.5 173.75 C30 174 30 174 32 176 C32.375 179.4375 32.375 179.4375 32 183 C31.33742188 183.39960938 30.67484375 183.79921875 29.9921875 184.2109375 C27.57288983 185.98069884 27.57288983 185.98069884 27.609375 189.79296875 C27.63589724 191.25832231 27.68350883 192.72341551 27.75 194.1875 C27.76804687 194.93708984 27.78609375 195.68667969 27.8046875 196.45898438 C27.85175891 198.3065371 27.92350234 200.15343159 28 202 C38.28278095 200.50165192 48.11533427 195.5465193 55.046875 187.67578125 C62.65158638 177.32492409 67.41283418 164.25353276 65.70019531 151.28369141 C63.65456275 144.61184795 57.04632027 140.03215261 51.88818359 135.70825195 C49.41444166 133.47024157 47.39149296 130.97511014 45.36523438 128.33227539 C43.90934465 126.64472551 43.90934465 126.64472551 40.625 126.5625 C39.325625 126.7790625 39.325625 126.7790625 38 127 C38 126.01 38 125.02 38 124 C39.32 123.67 40.64 123.34 42 123 C42.33 121.68 42.66 120.36 43 119 C41.68 118.01 40.36 117.02 39 116 C40.66611905 115.957279 42.33382885 115.95936168 44 116 C44.33 116.33 44.66 116.66 45 117 C44.9896875 118.30066406 44.979375 119.60132813 44.96875 120.94140625 C45.66681877 127.82529144 50.65003973 131.47595646 55.5 135.9375 C57.2619176 137.61170309 59.02241047 139.28740727 60.78125 140.96484375 C61.56564453 141.6930835 62.35003906 142.42132324 63.15820312 143.17163086 C65 145 65 145 66 147 C77.13330796 144.14530565 85.06372186 136.18290423 90.8125 126.5625 C93.25067197 122.31026151 94.05129905 117.75763572 95 113 C91.75030231 112.88361964 88.5011417 112.81269419 85.25 112.75 C84.32960937 112.71648437 83.40921875 112.68296875 82.4609375 112.6484375 C77.05818759 112.43693414 77.05818759 112.43693414 72.5234375 115.0234375 C72.02070313 115.67570312 71.51796875 116.32796875 71 117 C67.60845705 116.83849795 66.41703243 116.41703243 64 114 C63.6875 110.5 63.6875 110.5 64 107 C67.24826674 104.83448884 68.23094157 104.44843047 72 105 C72.50144531 105.66257812 73.00289062 106.32515625 73.51953125 107.0078125 C77.42402041 110.14370143 81.40533556 109.42641635 86.25 109.25 C87.18585938 109.23195313 88.12171875 109.21390625 89.0859375 109.1953125 C91.39167015 109.14825673 93.69530945 109.08253713 96 109 C96.0582462 105.27089934 96.09367917 101.54191636 96.125 97.8125 C96.15013672 96.22985352 96.15013672 96.22985352 96.17578125 94.61523438 C96.18544922 93.08286133 96.18544922 93.08286133 96.1953125 91.51953125 C96.21102295 90.11344604 96.21102295 90.11344604 96.22705078 88.67895508 C95.98166713 85.78369188 95.20521619 83.62937303 94 81 C89.90666095 80.92591413 85.81358067 80.8714296 81.71972656 80.83520508 C80.32675378 80.82010642 78.93382862 80.79962556 77.54101562 80.77368164 C75.54057115 80.73734878 73.53978173 80.72188808 71.5390625 80.70703125 C70.33459473 80.6913208 69.13012695 80.67561035 67.88916016 80.65942383 C66.9357373 80.77181396 65.98231445 80.8842041 65 81 C64.34 81.99 63.68 82.98 63 84 C61.125 84.36328125 61.125 84.36328125 59 84.3125 C58.29875 84.30863281 57.5975 84.30476563 56.875 84.30078125 C55 84 55 84 53 82 C52.67045568 78.90228335 52.54665399 76.82668977 54.0625 74.0625 C57.21566824 72.33334322 59.62508255 73.1409301 63 74 C63.99 75.485 63.99 75.485 65 77 C67.81274752 77.41764382 67.81274752 77.41764382 71.1015625 77.29296875 C72.31328125 77.28330078 73.525 77.27363281 74.7734375 77.26367188 C76.04445312 77.23853516 77.31546875 77.21339844 78.625 77.1875 C79.90375 77.17396484 81.1825 77.16042969 82.5 77.14648438 C85.66708282 77.11103196 88.83333541 77.06161441 92 77 C90.62424109 67.32897977 83.89384972 61.26048551 76.37109375 55.47265625 C68.83049359 50.78928514 62.72878661 50.49784011 53.87426758 50.55395508 C51.80646036 50.56252503 49.74136747 50.5335504 47.67382812 50.50195312 C46.36478516 50.50259766 45.05574219 50.50324219 43.70703125 50.50390625 C42.5156958 50.50205322 41.32436035 50.5002002 40.09692383 50.49829102 C36.40204702 51.0968698 35.41113674 52.24600915 33 55 C29.83625717 55.3858223 28.04286484 55.01428828 25 54 C24.5143339 46.59359191 24.5143339 46.59359191 26.6875 43.9375 C29.63772095 42.74146448 31.02043802 42.93041365 34 44 C34.41741455 44.50700439 34.8348291 45.01400879 35.26489258 45.53637695 C37.84088944 47.70931929 39.87624757 47.33977116 43.19921875 47.29296875 C44.40771484 47.28330078 45.61621094 47.27363281 46.86132812 47.26367188 C48.12396484 47.23853516 49.38660156 47.21339844 50.6875 47.1875 C51.96173828 47.17396484 53.23597656 47.16042969 54.54882812 47.14648438 C57.69964057 47.11108199 60.84961045 47.0616979 64 47 C64.04432868 45.12000945 64.07559734 43.23970882 64.1015625 41.359375 C64.12041504 40.31233398 64.13926758 39.26529297 64.15869141 38.18652344 C63.61264475 27.22190653 57.36579689 19.01361535 49.6875 11.75 C44.36487608 7.18261326 39.11099733 4 32 4 C32 8.62 32 13.24 32 18 C33.32 18.66 34.64 19.32 36 20 C36.36180905 27.35678392 36.36180905 27.35678392 34.875 30 C32.11365285 31.47271848 30.06997072 31.39191116 27 31 C24.32072659 26.98108988 24.84398752 24.75838077 25 20 C26.32 19.67 27.64 19.34 29 19 C29 13.39 29 7.78 29 2 C25.69426677 1.17356669 23.11088032 0.77872389 19.75 0.6875 C18.85796875 0.65011719 17.9659375 0.61273438 17.046875 0.57421875 C14.08793504 0.98771164 12.42294665 1.67286095 9.80957031 3.02661133 C9.0945636 3.39401932 8.37955688 3.76142731 7.6428833 4.13996887 C7.10073181 4.42377914 6.55858032 4.70758942 6 5 C5.84739489 11.4226219 5.74259562 17.84477346 5.67041016 24.26879883 C5.64030705 26.45224478 5.5994143 28.6355705 5.54736328 30.81860352 C5.47426437 33.96400665 5.44047833 37.1078063 5.4140625 40.25390625 C5.38309479 41.2239711 5.35212708 42.19403595 5.32022095 43.1934967 C5.31730303 49.11981679 6.18480595 52.31397462 10.41513062 56.55357361 C10.93813751 57.03089432 11.46114441 57.50821503 12 58 C12.51873688 58.5572023 13.03747375 59.1144046 13.57192993 59.68849182 C14.92235416 61.22546976 14.92235416 61.22546976 17 61 C17.26683594 61.58523437 17.53367187 62.17046875 17.80859375 62.7734375 C20.16874103 67.18420454 23.54819388 71.19074373 28.390625 72.7890625 C30.77851584 73.27343925 30.77851584 73.27343925 33.08203125 73.515625 C35 74 35 74 37 77 C36.625 80.6875 36.625 80.6875 36 84 C34.54207116 84.05399736 33.08357288 84.09279177 31.625 84.125 C30.81289062 84.14820312 30.00078125 84.17140625 29.1640625 84.1953125 C27 84 27 84 25 82 C24.938125 80.79085937 24.87625 79.58171875 24.8125 78.3359375 C24.24542687 72.8318461 20.94485463 70.189347 17 66.625 C15.70668474 65.41060752 14.41493829 64.19454143 13.125 62.9765625 C12.55007812 62.45143066 11.97515625 61.92629883 11.3828125 61.38525391 C10 60 10 60 9 58 C8.34 58 7.68 58 7 58 C6.67 57.01 6.34 56.02 6 55 C2.03379349 55.544889 0.26373393 57.39910024 -2.4765625 60.21875 C-3.311875 61.06824219 -4.1471875 61.91773438 -5.0078125 62.79296875 C-5.87148437 63.68628906 -6.73515625 64.57960938 -7.625 65.5 C-9.34424306 67.26247846 -11.06549629 69.02299902 -12.7890625 70.78125 C-13.54912598 71.56564453 -14.30918945 72.35003906 -15.09228516 73.15820312 C-17 75 -17 75 -19 76 C-19 76.66 -19 77.32 -19 78 C-19.99 78 -20.98 78 -22 78 C-20.52625145 73.02609866 -17.63359436 70.24647759 -14 66.75 C-13.4534375 66.20859375 -12.906875 65.6671875 -12.34375 65.109375 C-8.31058673 61.15529337 -8.31058673 61.15529337 -6 60 C-6 59.34 -6 58.68 -6 58 C-5.443125 57.773125 -4.88625 57.54625 -4.3125 57.3125 C-1.09456626 55.48610518 0.71011714 53.96656164 3 51 C3.69458584 47.4052799 3.58224764 43.87990335 3.48828125 40.23046875 C3.48120651 39.19432938 3.47413177 38.15819 3.46684265 37.09065247 C3.43890607 33.78886003 3.3761663 30.48877784 3.3125 27.1875 C3.2874163 24.94598807 3.26460326 22.7044495 3.24414062 20.46289062 C3.18908206 14.9746792 3.10546281 9.48746179 3 4 C2.44570312 3.79503906 1.89140625 3.59007812 1.3203125 3.37890625 C0.23363281 2.97478516 0.23363281 2.97478516 -0.875 2.5625 C-1.95394531 2.16224609 -1.95394531 2.16224609 -3.0546875 1.75390625 C-5 1 -5 1 -7 0 C-10.88712811 -0.14396771 -14.2601102 -0.03794298 -18 1 Z " fill="#E7D98F" transform="translate(140,42)"/>
<path d="M0 0 C95.04 0 190.08 0 288 0 C288 95.04 288 190.08 288 288 C192.96 288 97.92 288 0 288 C0 192.96 0 97.92 0 0 Z M5 5 C5 96.74 5 188.48 5 283 C96.74 283 188.48 283 283 283 C283 191.26 283 99.52 283 5 C191.26 5 99.52 5 5 5 Z " fill="#AF00FE" transform="translate(0,0)"/>
<path d="M0 0 C3.33135891 0.59699131 5.21275667 1.72012281 7.75 3.9375 C8.36359375 4.46214844 8.9771875 4.98679688 9.609375 5.52734375 C11 7 11 7 11 9 C15.29 9.66 19.58 10.32 24 11 C24.66 9.68 25.32 8.36 26 7 C32.23287671 6.52054795 32.23287671 6.52054795 35.5 8.5625 C37 11 37 11 36.9375 14.625 C36 18 36 18 33 20 C27.74626866 20.54726368 27.74626866 20.54726368 25.125 18.625 C24 17 24 17 24 15 C21.03 15 18.06 15 15 15 C15 30.51 15 46.02 15 62 C19.3725 61.9175 23.745 61.835 28.25 61.75 C29.62317383 61.73420898 30.99634766 61.71841797 32.41113281 61.70214844 C34.04066895 61.65622559 34.04066895 61.65622559 35.703125 61.609375 C37.36843262 61.5779541 37.36843262 61.5779541 39.06738281 61.54589844 C42.61669468 60.88520402 43.58570642 59.57378874 46 57 C52.21428571 57.21428571 52.21428571 57.21428571 55 60 C55.57142857 65.14285714 55.57142857 65.14285714 55 68 C52.8125 70.0625 52.8125 70.0625 50 71 C47.375 70.875 47.375 70.875 45 70 C44.58387451 69.49750732 44.16774902 68.99501465 43.73901367 68.47729492 C41.18301252 66.30596782 39.11410832 66.56605888 35.80078125 66.48828125 C34.71192627 66.45516846 33.62307129 66.42205566 32.5012207 66.38793945 C31.11894287 66.36304443 29.73666504 66.33814941 28.3125 66.3125 C23.919375 66.209375 19.52625 66.10625 15 66 C15 81.51 15 97.02 15 113 C16.65 113.33 18.3 113.66 20 114 C20.65484375 114.50144531 21.3096875 115.00289063 21.984375 115.51953125 C24.48250898 117.35440098 26.18398936 117.48578877 29.25 117.6875 C30.8175 117.790625 32.385 117.89375 34 118 C34 112.39 34 106.78 34 101 C32.02 100.01 32.02 100.01 30 99 C28.60064987 96.20129973 28.74734595 94.09501208 29 91 C30.0625 89.125 30.0625 89.125 32 88 C35.4093712 87.63471023 37.88023824 87.3859371 40.9375 89.0625 C42.6140629 92.11976176 42.36528977 94.5906288 42 98 C40.625 99.9375 40.625 99.9375 39 101 C38.34 101 37.68 101 37 101 C37 106.28 37 111.56 37 117 C40.465 116.01 40.465 116.01 44 115 C43.375 117.375 43.375 117.375 42 120 C36.68159977 122.93911591 29.90166449 122.78891145 24 122 C21.45439391 120.86861951 19.30242818 119.60808477 17.03515625 117.99609375 C14.2860828 116.65057796 12.87249012 117.08227153 10 118 C8.948125 118.680625 7.89625 119.36125 6.8125 120.0625 C0.5671082 123.75051154 -6.22589782 122.32558572 -13 120.8125 C-21.17585304 118.57124299 -28.41303516 115.51812564 -34 109 C-33.34 109 -32.68 109 -32 109 C-31.505 108.01 -31.505 108.01 -31 107 C-30.0925 107.680625 -29.185 108.36125 -28.25 109.0625 C-25.36486515 111.16899516 -25.36486515 111.16899516 -23.14453125 110.96875 C-19.91704455 109.51079608 -17.8040141 106.99563468 -15.4375 104.4375 C-13.67511778 102.53356098 -11.90832147 100.76847501 -10 99 C-9.01 99 -8.02 99 -7 99 C-7.29386173 102.45899743 -7.82982508 103.81948459 -10.25 106.38671875 C-11.1575 107.14597656 -12.065 107.90523438 -13 108.6875 C-16.49709793 111.44820962 -16.49709793 111.44820962 -19 115 C-7.60144097 117.82442171 0.27722034 118.36138983 11 113 C11.33 93.53 11.66 74.06 12 54 C5.39903546 59.77323279 5.39903546 59.77323279 0 66 C-0.66 66 -1.32 66 -2 66 C-2 66.66 -2 67.32 -2 68 C-3.375 69.625 -3.375 69.625 -5 71 C-5.66 71 -6.32 71 -7 71 C-6.84825965 76.00743139 -4.09792829 78.27547597 -0.69140625 81.546875 C0.95026857 83.07665156 0.95026857 83.07665156 3 84 C3 84.99 3 85.98 3 87 C-1.41510774 86.51286902 -3.30446645 85.14946803 -6.3125 81.9375 C-7.00988281 81.20402344 -7.70726563 80.47054687 -8.42578125 79.71484375 C-8.94527344 79.14894531 -9.46476562 78.58304687 -10 78 C-13.77111922 79.28295809 -15.96586515 80.67445311 -18.625 83.625 C-20.3515625 85.5390625 -20.3515625 85.5390625 -22 87 C-22.99 87 -23.98 87 -25 87 C-24.43168508 83.50862677 -23.36578952 82.07679842 -20.68945312 79.80908203 C-19.64352242 78.90214348 -19.64352242 78.90214348 -18.57646179 77.97688293 C-17.8190419 77.32708969 -17.06162201 76.67729645 -16.28125 76.0078125 C3.91729548 59.6603657 3.91729548 59.6603657 13.73721313 36.88989258 C13.98008871 30.53525678 13.31089355 24.21621719 12 18 C11.34 18 10.68 18 10 18 C10 18.66 10 19.32 10 20 C9.34 20 8.68 20 8 20 C8 20.66 8 21.32 8 22 C6.390625 23.5859375 6.390625 23.5859375 4.25 25.375 C1.93143575 27.33371653 -0.22034379 29.23225426 -2.3125 31.4375 C-4 33 -4 33 -7 33 C-6.15140515 28.46220591 -3.48771835 26.14989571 -0.25 23.0625 C0.2759375 22.55009766 0.801875 22.03769531 1.34375 21.50976562 C2.38589813 20.49470303 3.43077468 19.48243325 4.47851562 18.47314453 C6.67949359 16.34209494 8.83974602 14.1722554 11 12 C10.41734375 11.74089844 9.8346875 11.48179687 9.234375 11.21484375 C6.83656162 9.91113752 5.18243206 8.48254467 3.25 6.5625 C2.63640625 5.96566406 2.0228125 5.36882812 1.390625 4.75390625 C0 3 0 3 0 0 Z " fill="#E8DB90" transform="translate(131,127)"/>
<path d="M0 0 C-2.93479682 3.21880941 -5.81229231 5.60420916 -9.5 7.9375 C-17.42050021 13.10418391 -21.77442005 20.59502012 -25.3125 29.1875 C-26.36840865 35.04299344 -27.0254265 41.11276113 -26 47 C-23.57235153 49.31478406 -23.57235153 49.31478406 -21 51 C-21 51.66 -21 52.32 -21 53 C-20.401875 53.268125 -19.80375 53.53625 -19.1875 53.8125 C-16.98180967 55.00987475 -15.56416813 56.04478984 -14 58 C-14 58.99 -14 59.98 -14 61 C-20.11191509 60.49884475 -22.57747757 56.43115878 -26.40234375 52.0546875 C-28.84834678 49.67911883 -28.84834678 49.67911883 -32.0625 50.0234375 C-40.2623761 52.74946014 -47.40705135 60.05939674 -51.73046875 67.40234375 C-57.70147276 79.61993658 -60.86498797 94.17407168 -56.97265625 107.5234375 C-56.65167969 108.34070313 -56.33070312 109.15796875 -56 110 C-55.2265625 109.21496094 -54.453125 108.42992187 -53.65625 107.62109375 C-52.60430616 106.55975756 -51.5522148 105.49856757 -50.5 104.4375 C-49.9946875 103.92380859 -49.489375 103.41011719 -48.96875 102.88085938 C-46.2025488 100.09736942 -43.38533059 97.44746997 -40.39453125 94.90625 C-36.70454849 91.71695592 -33.27409958 88.32116411 -29.85546875 84.84765625 C-29.31435455 84.29867172 -28.77324036 83.74968719 -28.21572876 83.18406677 C-25.96142169 80.89316582 -23.71025199 78.59935434 -21.46801758 76.29663086 C-19.81214396 74.59863268 -18.14712968 72.9100579 -16.48046875 71.22265625 C-15.97420456 70.69777115 -15.46794037 70.17288605 -14.94633484 69.63209534 C-13.68677109 68.3633616 -12.34841059 67.1738718 -11 66 C-10.01 66 -9.02 66 -8 66 C-8.57380172 69.66377743 -9.97269658 71.32767225 -12.59765625 73.890625 C-13.67563477 74.95410156 -13.67563477 74.95410156 -14.77539062 76.0390625 C-15.53013672 76.76867187 -16.28488281 77.49828125 -17.0625 78.25 C-17.82111328 78.99507813 -18.57972656 79.74015625 -19.36132812 80.5078125 C-21.23432207 82.34546694 -23.11395611 84.17575724 -25 86 C-21.66883385 89.95374187 -18.31571444 93.81041857 -14.625 97.4375 C-13.93664062 98.11683594 -13.24828125 98.79617187 -12.5390625 99.49609375 C-12.03117187 99.99238281 -11.52328125 100.48867187 -11 101 C-11.495 102.485 -11.495 102.485 -12 104 C-16.93582902 102.00053223 -19.98329948 98.0177443 -23.5625 94.21484375 C-25.96526677 92.03156048 -26.86357297 91.31688313 -30 91 C-32.28605363 92.9352835 -34.23056299 94.81401148 -36.25 97 C-37.40823127 98.20887852 -38.56838028 99.41592266 -39.73046875 100.62109375 C-40.29040527 101.20616699 -40.8503418 101.79124023 -41.42724609 102.39404297 C-43.95094136 104.97101711 -46.66428325 107.29911071 -49.41015625 109.6328125 C-51.37657886 111.32383931 -53.20443433 113.12961909 -55 115 C-51.79907129 127.1298351 -44.16745612 135.40200928 -33.6875 142.125 C-31.12046513 143.26698365 -31.12046513 143.26698365 -29.09375 142.30078125 C-26.66802354 140.79375343 -24.82372634 139.08881997 -22.8125 137.0625 C-22.11769531 136.37285156 -21.42289063 135.68320313 -20.70703125 134.97265625 C-18.79261254 133.01392867 -18.79261254 133.01392867 -18 130 C-18.99 129.67 -19.98 129.34 -21 129 C-22.71230248 127.38025441 -24.37163262 125.7041054 -26 124 C-26.5465625 123.48566406 -27.093125 122.97132813 -27.65625 122.44140625 C-29.16077104 121.01849838 -30.58587784 119.51278185 -32 118 C-32 117.01 -32 116.02 -32 115 C-26.61506072 115.30970894 -24.17532596 118.35430107 -20.6875 122.0625 C-20.13771484 122.63033203 -19.58792969 123.19816406 -19.02148438 123.78320312 C-17.67172635 125.17990925 -16.33458475 126.58878837 -15 128 C-14.01 127.154375 -13.02 126.30875 -12 125.4375 C-11.04867187 124.62732422 -11.04867187 124.62732422 -10.078125 123.80078125 C-8.65490018 122.56749809 -7.24928929 121.31367506 -5.859375 120.04296875 C-5.16328125 119.41003906 -4.4671875 118.77710938 -3.75 118.125 C-2.78320312 117.23167969 -2.78320312 117.23167969 -1.796875 116.3203125 C0 115 0 115 3 115 C2.43620358 118.53906904 1.34527056 119.92061147 -1.40625 122.1640625 C-2.128125 122.77024414 -2.85 123.37642578 -3.59375 124.00097656 C-4.3878125 124.6606543 -5.181875 125.32033203 -6 126 C-19.50402418 136.43431964 -19.50402418 136.43431964 -27.40234375 150.734375 C-27.67064001 155.01306827 -26.98934152 158.84126354 -26 163 C-25.81179687 163.97710937 -25.62359375 164.95421875 -25.4296875 165.9609375 C-23.41036905 174.26826023 -18.93760176 181.40905404 -13.13671875 187.58984375 C-12 189 -12 189 -12 191 C-16.8520733 190.27597125 -18.97422813 187.31938929 -22.03515625 183.72265625 C-27.93528224 175.54693495 -31.03760108 165.1160039 -30.984375 155.04296875 C-31.00007401 152.11117879 -31.06724259 149.7845552 -32 147 C-34.35814242 145.14405458 -36.55089685 144.13612047 -39.359375 143.09765625 C-49.06064611 139.06502728 -54.8861271 128.17710108 -59 119 C-59.37125 118.21625 -59.7425 117.4325 -60.125 116.625 C-65.38537956 100.84386133 -64.25955499 83.92540215 -57.375 68.875 C-51.83207513 58.34206047 -43.4443499 50.51776976 -33 45 C-32.34 45 -31.68 45 -31 45 C-31.03222656 43.84242187 -31.06445312 42.68484375 -31.09765625 41.4921875 C-31.07800063 28.72726773 -26.65451356 17.86994745 -17.828125 8.7578125 C-6.29570559 -2.09856853 -6.29570559 -2.09856853 0 0 Z " fill="#986A30" transform="translate(111,45)"/>
<path d="M0 0 C12.20958167 7.5168555 19.51737216 18.92540086 22.875 32.75 C26.12971703 50.32159732 23.74692049 67.26414411 14.3125 82.5625 C9.36820566 89.70425848 2.77860703 95.19007002 -5 99 C-5.66 99 -6.32 99 -7 99 C-6.95875 100.216875 -6.9175 101.43375 -6.875 102.6875 C-6.93930528 116.36308895 -10.06361223 130.98011317 -20 141 C-25.81006606 145.84766248 -31.9660443 150.16173717 -39 153 C-41.22265625 152.58984375 -41.22265625 152.58984375 -43 152 C-40.90738417 148.43024358 -38.777394 147.37333197 -34.9765625 145.92578125 C-31.87673899 144.47388763 -29.35132972 142.34851968 -26.69921875 140.20703125 C-25 139 -25 139 -23 139 C-22.59587891 138.15308594 -22.59587891 138.15308594 -22.18359375 137.2890625 C-20.93922718 134.88246577 -19.52275358 132.65641399 -18.0625 130.375 C-15.05946449 125.31609666 -13.01683093 120.80826155 -12 115 C-11.76796875 113.71867187 -11.5359375 112.43734375 -11.296875 111.1171875 C-10.63408845 105.66286253 -10.28034322 100.61564758 -13.40478516 95.86328125 C-16.95596816 91.68841378 -21.00141633 88.13746776 -25.1940918 84.62402344 C-26.93123554 83.06183874 -28.33984298 81.46228675 -29.78125 79.62890625 C-31.8139634 76.71005125 -31.8139634 76.71005125 -35.3125 76.125 C-36.199375 76.08375 -37.08625 76.0425 -38 76 C-38 75.01 -38 74.02 -38 73 C-36.02 72.01 -36.02 72.01 -34 71 C-34.27617533 69.05925139 -34.27617533 69.05925139 -35 67 C-35.99 66.34 -36.98 65.68 -38 65 C-37 64 -37 64 -34.5625 63.8125 C-32 64 -32 64 -30 66 C-29.94277316 67.33343911 -29.94185415 68.66959519 -29.97265625 70.00390625 C-29.34642945 76.87588515 -24.2737605 80.51091555 -19.4375 84.9375 C-17.66160869 86.60930047 -15.88926514 88.28488046 -14.12109375 89.96484375 C-13.3314624 90.6930835 -12.54183105 91.42132324 -11.72827148 92.17163086 C-10 94 -10 94 -10 96 C6.19062836 87.74365787 13.21223982 79.36328053 19 62 C12.4 62 5.8 62 -1 62 C-1.66 63.32 -2.32 64.64 -3 66 C-5.875 67 -5.875 67 -9 67 C-11.375 65.5 -11.375 65.5 -13 63 C-13.5 59.4375 -13.5 59.4375 -13 56 C-10.92308202 53.61539047 -9.59443084 53.1040254 -6.5 52.5625 C-4 53 -4 53 -2.484375 54.98046875 C1.38609958 58.12675076 5.40189005 57.67530923 10.25 57.75 C11.65378906 57.79447266 11.65378906 57.79447266 13.0859375 57.83984375 C15.39071092 57.91039804 17.69448168 57.96316252 20 58 C19.86064456 54.27056178 19.71237699 50.54152904 19.5625 46.8125 C19.52318359 45.75740234 19.48386719 44.70230469 19.44335938 43.61523438 C19.40146484 42.59365234 19.35957031 41.57207031 19.31640625 40.51953125 C19.26141968 39.11344604 19.26141968 39.11344604 19.20532227 37.67895508 C19.02287791 34.59175444 19.02287791 34.59175444 18 30 C8.43 30 -1.14 30 -11 30 C-11.66 31.32 -12.32 32.64 -13 34 C-20.35678392 34.36180905 -20.35678392 34.36180905 -23 32.875 C-24.504106 30.05480125 -24.44912849 28.14389944 -24 25 C-22.4375 22.5625 -22.4375 22.5625 -20 21 C-16.375 21 -16.375 21 -13 22 C-12.34 23.32 -11.68 24.64 -11 26 C-2.09 26 6.82 26 16 26 C11.79006713 16.1768233 7.22236183 10.28580403 -1.765625 4.5078125 C-3.778579 3.14942046 -5.35978583 1.77867381 -7 0 C-4.25013762 -1.37493119 -2.92629781 -0.83608509 0 0 Z " fill="#97692D" transform="translate(216,93)"/>
<path d="M0 0 C5.38493928 0.30970894 7.82467404 3.35430107 11.3125 7.0625 C11.86228516 7.63033203 12.41207031 8.19816406 12.97851562 8.78320312 C14.32827365 10.17990925 15.66541525 11.58878837 17 13 C17.99 12.154375 18.98 11.30875 20 10.4375 C20.63421875 9.89738281 21.2684375 9.35726562 21.921875 8.80078125 C23.34509982 7.56749809 24.75071071 6.31367506 26.140625 5.04296875 C26.83671875 4.41003906 27.5328125 3.77710938 28.25 3.125 C28.89453125 2.52945313 29.5390625 1.93390625 30.203125 1.3203125 C32 0 32 0 35 0 C34.43620358 3.53906904 33.34527056 4.92061147 30.59375 7.1640625 C29.871875 7.77024414 29.15 8.37642578 28.40625 9.00097656 C27.6121875 9.6606543 26.818125 10.32033203 26 11 C12.49597582 21.43431964 12.49597582 21.43431964 4.59765625 35.734375 C4.32935999 40.01306827 5.01065848 43.84126354 6 48 C6.18820313 48.97710937 6.37640625 49.95421875 6.5703125 50.9609375 C8.58963095 59.26826023 13.06239824 66.40905404 18.86328125 72.58984375 C20 74 20 74 20 76 C15.1479267 75.27597125 13.02577187 72.31938929 9.96484375 68.72265625 C4.06471776 60.54693495 0.96239892 50.1160039 1.015625 40.04296875 C0.99992599 37.11117879 0.93275741 34.7845552 0 32 C-3.0530266 29.59715499 -6.39633092 28.38168846 -10 27 C-15.10756216 23.67414557 -18.41041495 18.84128473 -22 14 C-21.34 12.68 -20.68 11.36 -20 10 C-19.505 10.66 -19.01 11.32 -18.5 12 C-10.21145187 21.95139455 -10.21145187 21.95139455 1 28 C4.456805 26.90163896 6.66797321 24.60093506 9.1875 22.0625 C9.88230469 21.37285156 10.57710937 20.68320313 11.29296875 19.97265625 C13.20738746 18.01392867 13.20738746 18.01392867 14 15 C13.01 14.67 12.02 14.34 11 14 C9.28769752 12.38025441 7.62836738 10.7041054 6 9 C5.4534375 8.48566406 4.906875 7.97132813 4.34375 7.44140625 C2.83922896 6.01849838 1.41412216 4.51278185 0 3 C0 2.01 0 1.02 0 0 Z " fill="#B08C48" transform="translate(79,160)"/>
<path d="M0 0 C10.2467792 1.68039873 18.56782334 7.4646019 24.625 15.75 C31.57923048 26.08903292 33.19736248 34.67580974 33 47 C34.32 47.66 35.64 48.32 37 49 C32.81252925 51.03639657 29.5722128 51.17328565 24.94921875 50.9765625 C23.96100883 50.93902359 23.96100883 50.93902359 22.95283508 50.90072632 C20.86382617 50.8190354 18.77583634 50.72225509 16.6875 50.625 C15.2650146 50.56670805 13.84248826 50.50940595 12.41992188 50.453125 C8.94606723 50.31353514 5.47296255 50.16041251 2 50 C1.73960937 50.639375 1.47921875 51.27875 1.2109375 51.9375 C0 54 0 54 -3.375 55 C-7 55 -7 55 -9.4375 53.4375 C-11.45827813 50.28508611 -11.68960811 48.67790991 -11 45 C-8.8125 42.5625 -8.8125 42.5625 -6 41 C-3.375 41.0625 -3.375 41.0625 -1 42 C-0.58387451 42.50378174 -0.16774902 43.00756348 0.26098633 43.52661133 C2.81762946 45.69274095 4.8885797 45.43400422 8.19921875 45.51171875 C9.40771484 45.54716797 10.61621094 45.58261719 11.86132812 45.61914062 C13.7552832 45.65297852 13.7552832 45.65297852 15.6875 45.6875 C16.96173828 45.72166016 18.23597656 45.75582031 19.54882812 45.79101562 C22.69913103 45.87360784 25.84915157 45.94272335 29 46 C28.87624749 44.11926512 28.74281615 42.23916596 28.60546875 40.359375 C28.53223389 39.31233398 28.45899902 38.26529297 28.38354492 37.18652344 C27.00050962 25.69614992 20.96758891 16.94671119 12.30078125 9.609375 C8.19045308 6.73423883 3.64251414 4.85188524 -1 3 C-0.67 2.01 -0.34 1.02 0 0 Z " fill="#B89858" transform="translate(175,43)"/>
<path d="M0 0 C2.5625 0.1875 2.5625 0.1875 4.5625 2.1875 C4.61972684 3.52093911 4.62064585 4.85709519 4.58984375 6.19140625 C5.21607055 13.06338515 10.2887395 16.69841555 15.125 21.125 C16.90089131 22.79680047 18.67323486 24.47238046 20.44140625 26.15234375 C21.2310376 26.8805835 22.02066895 27.60882324 22.83422852 28.35913086 C24.5625 30.1875 24.5625 30.1875 24.5625 32.1875 C25.5525 31.8575 26.5425 31.5275 27.5625 31.1875 C27.5625 31.8475 27.5625 32.5075 27.5625 33.1875 C28.5525 33.5175 29.5425 33.8475 30.5625 34.1875 C29.5725 34.5175 28.5825 34.8475 27.5625 35.1875 C27.60375 36.404375 27.645 37.62125 27.6875 38.875 C27.62319472 52.55058895 24.49888777 67.16761317 14.5625 77.1875 C8.75243394 82.03516248 2.5964557 86.34923717 -4.4375 89.1875 C-6.66015625 88.77734375 -6.66015625 88.77734375 -8.4375 88.1875 C-6.34488417 84.61774358 -4.214894 83.56083197 -0.4140625 82.11328125 C2.68576101 80.66138763 5.21117028 78.53601968 7.86328125 76.39453125 C9.5625 75.1875 9.5625 75.1875 11.5625 75.1875 C11.96662109 74.34058594 11.96662109 74.34058594 12.37890625 73.4765625 C13.62327282 71.06996577 15.03974642 68.84391399 16.5 66.5625 C19.50303551 61.50359666 21.54566907 56.99576155 22.5625 51.1875 C22.79453125 49.90617187 23.0265625 48.62484375 23.265625 47.3046875 C23.92841155 41.85036253 24.28215678 36.80314758 21.15771484 32.05078125 C17.60653184 27.87591378 13.56108367 24.32496776 9.3684082 20.81152344 C7.63126446 19.24933874 6.22265702 17.64978675 4.78125 15.81640625 C2.7485366 12.89755125 2.7485366 12.89755125 -0.75 12.3125 C-1.636875 12.27125 -2.52375 12.23 -3.4375 12.1875 C-3.4375 11.1975 -3.4375 10.2075 -3.4375 9.1875 C-2.1175 8.5275 -0.7975 7.8675 0.5625 7.1875 C0.28632467 5.24675139 0.28632467 5.24675139 -0.4375 3.1875 C-1.4275 2.5275 -2.4175 1.8675 -3.4375 1.1875 C-2.4375 0.1875 -2.4375 0.1875 0 0 Z " fill="#C3A768" transform="translate(181.4375,156.8125)"/>
<path d="M0 0 C9.8899503 6.0887694 17.15558163 15.02022146 21 26 C20.78515625 28.8046875 20.78515625 28.8046875 20 31 C19.01 31.495 19.01 31.495 18 32 C18 31.34 18 30.68 18 30 C8.43 30 -1.14 30 -11 30 C-11.66 31.32 -12.32 32.64 -13 34 C-20.35678392 34.36180905 -20.35678392 34.36180905 -23 32.875 C-24.504106 30.05480125 -24.44912849 28.14389944 -24 25 C-22.4375 22.5625 -22.4375 22.5625 -20 21 C-16.375 21 -16.375 21 -13 22 C-12.34 23.32 -11.68 24.64 -11 26 C-2.09 26 6.82 26 16 26 C11.79006713 16.1768233 7.22236183 10.28580403 -1.765625 4.5078125 C-3.778579 3.14942046 -5.35978583 1.77867381 -7 0 C-4.25013762 -1.37493119 -2.92629781 -0.83608509 0 0 Z " fill="#9E7233" transform="translate(216,93)"/>
<path d="M0 0 C-2.93479682 3.21880941 -5.81229231 5.60420916 -9.5 7.9375 C-17.42050021 13.10418391 -21.77442005 20.59502012 -25.3125 29.1875 C-26.36840865 35.04299344 -27.0254265 41.11276113 -26 47 C-23.57235153 49.31478406 -23.57235153 49.31478406 -21 51 C-21 51.66 -21 52.32 -21 53 C-20.401875 53.268125 -19.80375 53.53625 -19.1875 53.8125 C-16.98180967 55.00987475 -15.56416813 56.04478984 -14 58 C-14 58.99 -14 59.98 -14 61 C-20.11191509 60.49884475 -22.57747757 56.43115878 -26.40234375 52.0546875 C-28.84168166 49.68788682 -28.84168166 49.68788682 -32.01171875 50.00390625 C-35.05816399 51.019388 -37.26602395 52.20459281 -39.875 54.0625 C-40.65617187 54.61035156 -41.43734375 55.15820312 -42.2421875 55.72265625 C-43.11230469 56.35494141 -43.11230469 56.35494141 -44 57 C-44 53.80043729 -43.70552638 52.64148597 -42 50 C-39.90625 48.515625 -39.90625 48.515625 -37.5 47.25 C-36.7059375 46.82203125 -35.911875 46.3940625 -35.09375 45.953125 C-33 45 -33 45 -31 45 C-31.03222656 43.84242187 -31.06445312 42.68484375 -31.09765625 41.4921875 C-31.07800063 28.72726773 -26.65451356 17.86994745 -17.828125 8.7578125 C-6.29570559 -2.09856853 -6.29570559 -2.09856853 0 0 Z " fill="#AC8747" transform="translate(111,45)"/>
<path d="M0 0 C-0.57380172 3.66377743 -1.97269658 5.32767225 -4.59765625 7.890625 C-5.67563477 8.95410156 -5.67563477 8.95410156 -6.77539062 10.0390625 C-7.53013672 10.76867187 -8.28488281 11.49828125 -9.0625 12.25 C-9.82111328 12.99507812 -10.57972656 13.74015625 -11.36132812 14.5078125 C-13.23432207 16.34546694 -15.11395611 18.17575724 -17 20 C-13.66883385 23.95374187 -10.31571444 27.81041857 -6.625 31.4375 C-5.93664062 32.11683594 -5.24828125 32.79617187 -4.5390625 33.49609375 C-4.03117187 33.99238281 -3.52328125 34.48867187 -3 35 C-3.33 35.99 -3.66 36.98 -4 38 C-8.93582902 36.00053223 -11.98329948 32.0177443 -15.5625 28.21484375 C-17.96427411 26.03246247 -18.86105695 25.30290688 -22 25 C-23.64506514 26.00414417 -23.64506514 26.00414417 -25.0234375 27.640625 C-25.57 28.21683594 -26.1165625 28.79304688 -26.6796875 29.38671875 C-27.23914063 30.00160156 -27.79859375 30.61648437 -28.375 31.25 C-32.32144041 35.53760465 -35.5490439 38.64051471 -41 41 C-42.35863401 41.96534522 -43.70343137 42.95277149 -45 44 C-45.66 43.67 -46.32 43.34 -47 43 C-45.33664694 41.30912823 -43.66943461 39.62235155 -42 37.9375 C-41.31357422 37.23850586 -41.31357422 37.23850586 -40.61328125 36.52539062 C-37.97642245 33.87047115 -35.27754481 31.36058416 -32.42578125 28.9375 C-28.72639268 25.73673232 -25.28434149 22.33160754 -21.85546875 18.84765625 C-21.31439484 18.29871201 -20.77332092 17.74976776 -20.21585083 17.18418884 C-17.96150204 14.8932482 -15.71029214 12.59939557 -13.46801758 10.29663086 C-11.81214396 8.59863268 -10.14712968 6.9100579 -8.48046875 5.22265625 C-7.97420456 4.69777115 -7.46794037 4.17288605 -6.94633484 3.63209534 C-3.34049109 0 -3.34049109 0 0 0 Z " fill="#BB9D5E" transform="translate(103,111)"/>
<path d="M0 0 C-0.33 0.99 -0.66 1.98 -1 3 C-1.66 3 -2.32 3 -3 3 C-4.54347329 22.65339297 -4.54347329 22.65339297 1.64697266 40.32519531 C3.65426222 42.34564062 5.83050441 44.15730683 8 46 C8 46.99 8 47.98 8 49 C4.93617261 48.67567593 4.01029035 48.01098513 1.859375 45.71484375 C1.16328125 44.79832031 0.4671875 43.88179687 -0.25 42.9375 C-0.95640625 42.01839844 -1.6628125 41.09929687 -2.390625 40.15234375 C-2.92171875 39.44207031 -3.4528125 38.73179688 -4 38 C-6.7426385 40.6642774 -9.26991752 43.29885342 -11.625 46.3125 C-12.40875 47.199375 -13.1925 48.08625 -14 49 C-14.99 49 -15.98 49 -17 49 C-16.47258876 44.90594821 -14.31266863 43.08858886 -11.50390625 40.19921875 C-5.79276631 33.39496187 -5.7525934 27.42570757 -5.9375 18.8125 C-5.93441683 17.46547928 -5.92727989 16.11846152 -5.91601562 14.77148438 C-5.90433326 11.51210464 -5.9331595 8.25855449 -6 5 C-8.97 5.66 -11.94 6.32 -15 7 C-15.33 5.68 -15.66 4.36 -16 3 C-10.47239641 0.89424625 -5.93002267 -0.37851209 0 0 Z " fill="#DDCB82" transform="translate(125,40)"/>
<path d="M0 0 C5.38493928 0.30970894 7.82467404 3.35430107 11.3125 7.0625 C12.13717773 7.91424805 12.13717773 7.91424805 12.97851562 8.78320312 C14.32827365 10.17990925 15.66541525 11.58878837 17 13 C17.99 12.154375 18.98 11.30875 20 10.4375 C20.63421875 9.89738281 21.2684375 9.35726562 21.921875 8.80078125 C23.34509982 7.56749809 24.75071071 6.31367506 26.140625 5.04296875 C26.83671875 4.41003906 27.5328125 3.77710938 28.25 3.125 C28.89453125 2.52945313 29.5390625 1.93390625 30.203125 1.3203125 C32 0 32 0 35 0 C34.4382131 3.55493747 33.34189953 4.90070303 30.5625 7.12890625 C25.40566153 11.4397009 20.72614697 16.16416416 16 20.9375 C15.12988281 21.81212891 14.25976562 22.68675781 13.36328125 23.58789062 C11.23986451 25.72297449 9.11883622 27.86037205 7 30 C6.34 29.34 5.68 28.68 5 28 C6.42455649 24.29615312 8.80439725 22.09716929 11.66015625 19.46484375 C13.25108699 17.92498332 13.25108699 17.92498332 14 15 C13.01 14.67 12.02 14.34 11 14 C9.28769752 12.38025441 7.62836738 10.7041054 6 9 C5.4534375 8.48566406 4.906875 7.97132813 4.34375 7.44140625 C2.83922896 6.01849838 1.41412216 4.51278185 0 3 C0 2.01 0 1.02 0 0 Z " fill="#C4A869" transform="translate(79,160)"/>
<path d="M0 0 C-0.29386173 3.45899743 -0.82982508 4.81948459 -3.25 7.38671875 C-4.1575 8.14597656 -5.065 8.90523437 -6 9.6875 C-9.49709793 12.44820962 -9.49709793 12.44820962 -12 16 C-10.54166667 16.29166667 -9.08333333 16.58333333 -7.625 16.875 C-4.78645833 17.44270833 -1.94791667 18.01041667 0.890625 18.578125 C1.79296875 18.75859375 2.6953125 18.9390625 3.625 19.125 C5.8125 19.5625 5.8125 19.5625 8 20 C8.495 21.485 8.495 21.485 9 23 C-2.38183281 23.56909164 -14.7428596 21.01212309 -23.73046875 13.56640625 C-25.125 12.1875 -25.125 12.1875 -27 10 C-26.34 10 -25.68 10 -25 10 C-24.67 9.34 -24.34 8.68 -24 8 C-23.0925 8.680625 -22.185 9.36125 -21.25 10.0625 C-18.36486515 12.16899516 -18.36486515 12.16899516 -16.14453125 11.96875 C-12.91704455 10.51079608 -10.8040141 7.99563468 -8.4375 5.4375 C-3.40427509 0 -3.40427509 0 0 0 Z " fill="#D2BB76" transform="translate(124,226)"/>
<path d="M0 0 C0.75023437 0.98033203 0.75023437 0.98033203 1.515625 1.98046875 C5.38609958 5.12675076 9.40189005 4.67530923 14.25 4.75 C15.65378906 4.79447266 15.65378906 4.79447266 17.0859375 4.83984375 C19.39071092 4.91039804 21.69448168 4.96316252 24 5 C24 5.33 24 5.66 24 6 C19.38 6.33 14.76 6.66 10 7 C14.29 7.33 18.58 7.66 23 8 C23 8.33 23 8.66 23 9 C16.4 9 9.8 9 3 9 C2.34 10.32 1.68 11.64 1 13 C-1.875 14 -1.875 14 -5 14 C-7.375 12.5 -7.375 12.5 -9 10 C-9.5 6.4375 -9.5 6.4375 -9 3 C-6.35893733 -0.03233122 -3.92985113 -0.68772395 0 0 Z " fill="#AD8B58" transform="translate(212,146)"/>
<path d="M0 0 C1.11375 0.33 2.2275 0.66 3.375 1 C4.035 2.32 4.695 3.64 5.375 5 C14.615 4.67 23.855 4.34 33.375 4 C33.375 4.66 33.375 5.32 33.375 6 C24.135 6 14.895 6 5.375 6 C5.375 6.66 5.375 7.32 5.375 8 C11.315 8 17.255 8 23.375 8 C23.375 8.33 23.375 8.66 23.375 9 C17.435 9 11.495 9 5.375 9 C4.715 10.32 4.055 11.64 3.375 13 C-3.98178392 13.36180905 -3.98178392 13.36180905 -6.625 11.875 C-8.129106 9.05480125 -8.07412849 7.14389944 -7.625 4 C-5.31866764 0.40212152 -4.31236642 0 0 0 Z " fill="#BB9C67" transform="translate(199.625,114)"/>
<path d="M0 0 C0.33 0 0.66 0 1 0 C1 3.3 1 6.6 1 10 C-12.365 10.495 -12.365 10.495 -26 11 C-26.66 12.65 -27.32 14.3 -28 16 C-31.24826674 18.16551116 -32.23094157 18.55156953 -36 18 C-39.03247414 15.86907223 -39.87637987 14.65930734 -40.5625 11 C-40 8 -40 8 -37.8125 5.5625 C-35 4 -35 4 -32.375 4.0625 C-30 5 -30 5 -28.73901367 6.52661133 C-26.18237054 8.69274095 -24.1114203 8.43400422 -20.80078125 8.51171875 C-18.98803711 8.56489258 -18.98803711 8.56489258 -17.13867188 8.61914062 C-15.2447168 8.65297852 -15.2447168 8.65297852 -13.3125 8.6875 C-11.40114258 8.73874023 -11.40114258 8.73874023 -9.45117188 8.79101562 C-6.30086897 8.87360784 -3.15084843 8.94272335 0 9 C0 6.03 0 3.06 0 0 Z " fill="#D9C88D" transform="translate(204,80)"/>
<path d="M0 0 C2 3 2 3 3 6 C-0.20292709 16.03215669 -8.12238905 25.06226176 -17.203125 30.23828125 C-19.55391842 31.23481324 -21.48490868 31.39298302 -24 31 C-22.75272459 27.25817377 -21.77523791 27.10507255 -18.375 25.3125 C-10.20707045 20.58185892 -4.75516132 13.6430779 -1 5 C-0.62139758 3.34303015 -0.27608996 1.67709965 0 0 Z " fill="#A0773C" transform="translate(233,159)"/>
<path d="M0 0 C0.99 0.99 1.98 1.98 3 3 C0.46222075 7.79358302 -1.93947382 11.31719719 -6 15 C-6.50273437 15.48339844 -7.00546875 15.96679688 -7.5234375 16.46484375 C-12.04060246 20.63208748 -17.14254482 24.02789197 -23 26 C-25.30078125 25.62890625 -25.30078125 25.62890625 -27 25 C-24.90738417 21.43024358 -22.777394 20.37333197 -18.9765625 18.92578125 C-15.87673899 17.47388763 -13.35132972 15.34851968 -10.69921875 13.20703125 C-9 12 -9 12 -7 12 C-6.72414062 11.42765625 -6.44828125 10.8553125 -6.1640625 10.265625 C-5.00532152 8.01035733 -3.73124294 5.89143622 -2.375 3.75 C-1.92898437 3.04359375 -1.48296875 2.3371875 -1.0234375 1.609375 C-0.68570313 1.07828125 -0.34796875 0.5471875 0 0 Z " fill="#C3A767" transform="translate(200,220)"/>
<path d="M0 0 C0.33 0 0.66 0 1 0 C1.03738281 1.11117187 1.07476562 2.22234375 1.11328125 3.3671875 C1.72407208 18.28122294 4.3369413 30.37412134 14.86328125 41.58984375 C16 43 16 43 16 45 C11.15300939 44.27672969 9.034208 41.32418081 5.96875 37.73828125 C1.42883246 31.42383245 -1.66746925 23.81447261 -2 16 C-1.67 15.01 -1.34 14.02 -1 13 C-0.77548542 10.77425665 -0.59217122 8.54418481 -0.4375 6.3125 C-0.35371094 5.13300781 -0.26992187 3.95351562 -0.18359375 2.73828125 C-0.12300781 1.83464844 -0.06242187 0.93101562 0 0 Z " fill="#BC9E5C" transform="translate(83,191)"/>
<path d="M0 0 C-2.93479682 3.21880941 -5.81229231 5.60420916 -9.5 7.9375 C-14.85637502 11.4195879 -18.05586527 15.11042087 -21 20.8125 C-23 24 -23 24 -25.75 24.9375 C-26.4925 24.958125 -27.235 24.97875 -28 25 C-23.98707429 14.34241591 -16.70612434 5.84869174 -6.625 0.4375 C-3 -1 -3 -1 0 0 Z " fill="#BD9F5F" transform="translate(111,45)"/>
<path d="M0 0 C0.66 0.33 1.32 0.66 2 1 C0.35 2.65 -1.3 4.3 -3 6 C-2.67 6.66 -2.34 7.32 -2 8 C-2.66 8 -3.32 8 -4 8 C-4.33257812 8.81791016 -4.33257812 8.81791016 -4.671875 9.65234375 C-6.41986849 12.74217931 -8.75220154 15.08144282 -11.25 17.5625 C-11.71535156 18.04396484 -12.18070313 18.52542969 -12.66015625 19.02148438 C-15.83601851 22.2017211 -18.92632998 24.15144386 -23 26 C-24.35863401 26.96534522 -25.70343137 27.95277149 -27 29 C-27.66 28.67 -28.32 28.34 -29 28 C-23.50606076 22.41516839 -18.0245067 16.92122712 -12.05859375 11.8359375 C-7.85367497 8.08582018 -3.9460524 4.01882795 0 0 Z " fill="#AA854B" transform="translate(85,126)"/>
<path d="M0 0 C0.66 0.33 1.32 0.66 2 1 C1.66928325 3.97645079 1.06089937 4.94432058 -1.1875 7 C-5.50542406 11.00412144 -7.5412101 16.75794645 -10 22 C-10.66226262 23.33552628 -11.32696145 24.66987168 -12 26 C-12.99 25.67 -13.98 25.34 -15 25 C-13.22758276 14.56858602 -7.229034 7.40227883 0 0 Z " fill="#9D7234" transform="translate(66,98)"/>
<path d="M0 0 C7.90309624 1.29605143 15.41283037 5.26956961 21 11 C21.875 13.8125 21.875 13.8125 22 16 C18.14349808 16 17.67799054 14.97572221 15 12.3125 C10.1709379 7.83348523 5.09590555 5.36999692 -1 3 C-0.67 2.01 -0.34 1.02 0 0 Z " fill="#C3A767" transform="translate(175,43)"/>
<path d="M0 0 C0.66 0.33 1.32 0.66 2 1 C-0.97 3.97 -3.94 6.94 -7 10 C-6.01 13.63 -5.02 17.26 -4 21 C-4.99 21.33 -5.98 21.66 -7 22 C-13.09043478 10.08521739 -13.09043478 10.08521739 -12.8125 6.75 C-12.544375 6.1725 -12.27625 5.595 -12 5 C-9 4 -9 4 -5 4 C-2.26780807 2.08140833 -2.26780807 2.08140833 0 0 Z " fill="#996B2D" transform="translate(63,150)"/>
<path d="M0 0 C6.6 0.6 6.6 0.6 9 3 C9.57142857 8.14285714 9.57142857 8.14285714 9 11 C6.3610284 13.48817322 4.92526771 14.02151785 1.3125 13.9375 C-1 13 -1 13 -2.3125 10.9375 C-2.539375 10.298125 -2.76625 9.65875 -3 9 C-2.34 8.01 -1.68 7.02 -1 6 C-0.67 6.99 -0.34 7.98 0 9 C1.65 8.67 3.3 8.34 5 8 C3.60667426 4.63279613 2.0210714 3.0140476 -1 1 C-0.67 0.67 -0.34 0.34 0 0 Z " fill="#CDB673" transform="translate(177,184)"/>
<path d="M0 0 C7.35013445 0.56257269 12.97912052 6.60470539 17.5625 11.9375 C18.366875 12.948125 19.17125 13.95875 20 15 C18.02 15.99 18.02 15.99 16 17 C15.62230469 16.50371094 15.24460938 16.00742188 14.85546875 15.49609375 C10.03724793 9.54948398 4.59273607 5.81496482 -2 2 C-1.34 1.34 -0.68 0.68 0 0 Z " fill="#A78043" transform="translate(211,92)"/>
<path d="M0 0 C0.33 0 0.66 0 1 0 C1.01417969 0.60328125 1.02835937 1.2065625 1.04296875 1.828125 C1.28345203 7.26080431 1.28345203 7.26080431 4.5625 11.4375 C5.366875 11.953125 6.17125 12.46875 7 13 C7 13.66 7 14.32 7 15 C7.598125 15.268125 8.19625 15.53625 8.8125 15.8125 C11.01819033 17.00987475 12.43583187 18.04478984 14 20 C14 20.99 14 21.98 14 23 C9.128706 22.57146606 7.11369984 20.54349287 3.8125 17.0625 C2.95269531 16.16660156 2.09289062 15.27070312 1.20703125 14.34765625 C0.47871094 13.57292969 -0.24960938 12.79820313 -1 12 C-1.66 11.34 -2.32 10.68 -3 10 C-2.67 9.01 -2.34 8.02 -2 7 C-1.67 7 -1.34 7 -1 7 C-0.67 4.69 -0.34 2.38 0 0 Z " fill="#C0A368" transform="translate(83,83)"/>
<path d="M0 0 C-1.98 0.99 -1.98 0.99 -4 2 C-2.68 2.99 -1.36 3.98 0 5 C-0.33 6.32 -0.66 7.64 -1 9 C-2.32 9.33 -3.64 9.66 -5 10 C-5 10.99 -5 11.98 -5 13 C-6.9375 12.4375 -6.9375 12.4375 -9 11 C-10 7.625 -10 7.625 -10 4 C-7.29051062 -0.22680343 -4.81814183 -0.43801289 0 0 Z " fill="#D5C283" transform="translate(183,156)"/>
<path d="M0 0 C0.66 0 1.32 0 2 0 C2.26789975 11.29643957 1.83506146 20.67055051 -3 31 C-3.66 30.34 -4.32 29.68 -5 29 C-4.828125 27.15234375 -4.828125 27.15234375 -4.25 24.9375 C-4.05019531 24.12925781 -3.85039062 23.32101563 -3.64453125 22.48828125 C-3.43183594 21.66714844 -3.21914062 20.84601563 -3 20 C-1.34021167 13.34907512 -0.48578325 6.83931678 0 0 Z " fill="#B3914E" transform="translate(206,192)"/>
<path d="M0 0 C2.5625 0.1875 2.5625 0.1875 4.5625 2.1875 C4.94140625 4.2109375 4.94140625 4.2109375 5.125 6.5625 C5.3694447 9.54572312 5.7646545 12.29943117 6.5625 15.1875 C5.5725 15.1875 4.5825 15.1875 3.5625 15.1875 C3.2325 14.5275 2.9025 13.8675 2.5625 13.1875 C-0.46684491 12.52977572 -0.46684491 12.52977572 -3.4375 12.1875 C-3.4375 11.1975 -3.4375 10.2075 -3.4375 9.1875 C-2.1175 8.5275 -0.7975 7.8675 0.5625 7.1875 C0.28632467 5.24675139 0.28632467 5.24675139 -0.4375 3.1875 C-1.4275 2.5275 -2.4175 1.8675 -3.4375 1.1875 C-2.4375 0.1875 -2.4375 0.1875 0 0 Z " fill="#CBB26D" transform="translate(181.4375,156.8125)"/>
<path d="M0 0 C0.474375 0.639375 0.94875 1.27875 1.4375 1.9375 C4.41832547 5.49994995 7.69951502 8.62949291 11.07421875 11.81640625 C12.98817949 13.98659703 13.62239479 15.17756104 14 18 C6.81652326 15.74233588 2.67266926 9.57187709 -2 4 C-1.34 2.68 -0.68 1.36 0 0 Z " fill="#A47B3E" transform="translate(59,170)"/>
<path d="M0 0 C0 3 0 6 0 9 C-2.3125 9.625 -2.3125 9.625 -5 10 C-8 8 -8 8 -8.6875 5.375 C-8.790625 4.59125 -8.89375 3.8075 -9 3 C-5.92807025 0.26939578 -4.09590633 -0.34132553 0 0 Z " fill="#B59358" transform="translate(212,146)"/>
<path d="M0 0 C1.0725 0.2475 2.145 0.495 3.25 0.75 C2.26 2.235 2.26 2.235 1.25 3.75 C1.5621764 6.39632287 1.5621764 6.39632287 2.25 8.75 C0.6 9.08 -1.05 9.41 -2.75 9.75 C-3.74 8.43 -4.73 7.11 -5.75 5.75 C-6.41 7.07 -7.07 8.39 -7.75 9.75 C-8.06991247 6.23096286 -8.12169764 4.32984832 -6.1875 1.3125 C-3.75 -0.25 -3.75 -0.25 0 0 Z " fill="#C4A970" transform="translate(199.75,114.25)"/>
<path d="M0 0 C2.98313944 0.58826674 5.96048537 1.19462904 8.9375 1.8125 C9.78763672 1.97814453 10.63777344 2.14378906 11.51367188 2.31445312 C12.72700195 2.5706543 12.72700195 2.5706543 13.96484375 2.83203125 C14.7137085 2.98389893 15.46257324 3.1357666 16.23413086 3.29223633 C16.81686768 3.52579834 17.39960449 3.75936035 18 4 C18.33 4.99 18.66 5.98 19 7 C11.52605426 7.37369729 5.17859349 6.04061541 -2 4 C-1.34 2.68 -0.68 1.36 0 0 Z " fill="#DBC984" transform="translate(114,242)"/>
<path d="M0 0 C5.42693662 0.48239437 5.42693662 0.48239437 7.9375 2.75 C9 5 9 5 8.875 7.5625 C7.91041439 10.24955992 7.38918727 11.43467041 5 13 C1.8125 13.1875 1.8125 13.1875 -1 13 C0 10 0 10 2.0625 8.8125 C3.0215625 8.4103125 3.0215625 8.4103125 4 8 C3.73323796 6.01508358 3.73323796 6.01508358 3 4 C2.01 3.67 1.02 3.34 0 3 C0 2.01 0 1.02 0 0 Z " fill="#D6C27C" transform="translate(169,114)"/>
<path d="M0 0 C-4.07604178 4.47049744 -8.67265952 8.09689873 -14 11 C-14.99 11 -15.98 11 -17 11 C-14.79492557 5.07386246 -11.43470199 2.75022217 -6 0 C-3 -1 -3 -1 0 0 Z " fill="#CAB16F" transform="translate(111,45)"/>
<path d="M0 0 C4.56167877 0.26833405 6.82493192 2.17492791 9.83984375 5.3671875 C11 7 11 7 11.375 9.875 C11.25125 10.57625 11.1275 11.2775 11 12 C6.72503663 9.7367841 2.9357385 6.87396421 0 3 C0 2.01 0 1.02 0 0 Z " fill="#BC9E63" transform="translate(79,160)"/>
<path d="M0 0 C0.66 0 1.32 0 2 0 C2.33 0.99 2.66 1.98 3 3 C6.34373475 2.44271087 9.03312999 1.64826111 12 0 C11.6875 2.875 11.6875 2.875 11 6 C7.54754176 8.30163882 6.05261287 8.34490322 2 8 C0 6 0 6 -0.125 2.875 C-0.08375 1.92625 -0.0425 0.9775 0 0 Z " fill="#DECC8A" transform="translate(165,66)"/>
<path d="M0 0 C0.55300781 0.22171875 1.10601562 0.4434375 1.67578125 0.671875 C-5.7280649 8.49879808 -5.7280649 8.49879808 -11.13671875 8.859375 C-12.21953125 8.7665625 -12.21953125 8.7665625 -13.32421875 8.671875 C-12.07557598 4.92594669 -10.83598941 4.42714515 -7.51171875 2.421875 C-6.63902344 1.88046875 -5.76632813 1.3390625 -4.8671875 0.78125 C-2.32421875 -0.328125 -2.32421875 -0.328125 0 0 Z " fill="#AA8447" transform="translate(222.32421875,181.328125)"/>
<path d="M0 0 C-1.32 5.28 -2.64 10.56 -4 16 C-4.99 16 -5.98 16 -7 16 C-6.74462428 13.8939014 -6.47014626 11.79011246 -6.1875 9.6875 C-6.03667969 8.51574219 -5.88585937 7.34398438 -5.73046875 6.13671875 C-4.89596623 2.55326675 -4.00116599 0 0 0 Z " fill="#B28E4B" transform="translate(87,69)"/>
<path d="M0 0 C-0.54745627 3.76583554 -1.99131767 5.22721286 -4.875 7.625 C-5.57367188 8.21539062 -6.27234375 8.80578125 -6.9921875 9.4140625 C-9 11 -9 11 -12 13 C-12.33 11.68 -12.66 10.36 -13 9 C-12.0925 8.2575 -11.185 7.515 -10.25 6.75 C-8.28928217 5.13067774 -6.56789437 3.54320262 -4.8125 1.6875 C-3 0 -3 0 0 0 Z " fill="#CCB46F" transform="translate(114,160)"/>
<path d="M0 0 C0.66 0.33 1.32 0.66 2 1 C2 3 2 3 0.390625 4.69140625 C-0.31578125 5.30886719 -1.0221875 5.92632812 -1.75 6.5625 C-2.44609375 7.18253906 -3.1421875 7.80257812 -3.859375 8.44140625 C-5.97982555 9.98531094 -7.43920573 10.57896851 -10 11 C-9.42151242 7.74777105 -8.49110446 6.10208864 -6.125 3.8125 C-5.61195312 3.30332031 -5.09890625 2.79414063 -4.5703125 2.26953125 C-3 1 -3 1 0 0 Z " fill="#D3BD77" transform="translate(116,203)"/>
<path d="M0 0 C-0.54984772 3.87511727 -2.27555331 5.59576506 -5.0625 8.25 C-5.79597656 8.95640625 -6.52945313 9.6628125 -7.28515625 10.390625 C-7.85105469 10.92171875 -8.41695313 11.4528125 -9 12 C-9.66 11.34 -10.32 10.68 -11 10 C-9.15919405 5.21390453 -5.3291986 0 0 0 Z " fill="#C3A764" transform="translate(103,111)"/>
<path d="M0 0 C0.77734375 1.703125 0.77734375 1.703125 1 4 C-0.87109375 6.359375 -0.87109375 6.359375 -3.4375 8.75 C-4.70400391 9.94882813 -4.70400391 9.94882813 -5.99609375 11.171875 C-6.65738281 11.77515625 -7.31867188 12.3784375 -8 13 C-8.66 12.34 -9.32 11.68 -10 11 C-8.4422692 7.17647894 -6.08404742 4.70794407 -3 2 C-2.01 2 -1.02 2 0 2 C0 1.34 0 0.68 0 0 Z " fill="#B99A5B" transform="translate(94,177)"/>
<path d="M0 0 C4.62 0 9.24 0 14 0 C14 0.66 14 1.32 14 2 C16.31 2 18.62 2 21 2 C21 2.33 21 2.66 21 3 C14.07 3 7.14 3 0 3 C0 2.01 0 1.02 0 0 Z " fill="#C5A865" transform="translate(177,90)"/>
<path d="M0 0 C0.66 0.33 1.32 0.66 2 1 C0.35 2.65 -1.3 4.3 -3 6 C-2.67 6.66 -2.34 7.32 -2 8 C-2.66 8 -3.32 8 -4 8 C-4.2475 8.598125 -4.495 9.19625 -4.75 9.8125 C-6.16370012 12.28647521 -7.65055383 13.43370255 -10 15 C-10.3125 12.83203125 -10.3125 12.83203125 -10 10 C-7.8125 7.32421875 -7.8125 7.32421875 -5 4.6875 C-4.071875 3.80449219 -3.14375 2.92148438 -2.1875 2.01171875 C-1.1046875 1.01591797 -1.1046875 1.01591797 0 0 Z " fill="#B18E4F" transform="translate(85,126)"/>
<path d="M0 0 C4.38889325 0.66498383 7.9811485 2.18757677 12 4 C11.01 5.485 11.01 5.485 10 7 C8.53932801 6.54917531 7.08151968 6.08906463 5.625 5.625 C4.81289062 5.36976562 4.00078125 5.11453125 3.1640625 4.8515625 C1 4 1 4 -1 2 C-0.67 1.34 -0.34 0.68 0 0 Z " fill="#D0B976" transform="translate(175,43)"/>
<path d="M0 0 C1.32 0 2.64 0 4 0 C4 0.66 4 1.32 4 2 C4.99 2.33 5.98 2.66 7 3 C6.01 3.33 5.02 3.66 4 4 C4 6.97 4 9.94 4 13 C3.67 13 3.34 13 3 13 C3 10.03 3 7.06 3 4 C2.34 4 1.68 4 1 4 C1 7.63 1 11.26 1 15 C0.67 15 0.34 15 0 15 C-0.19390729 12.68802845 -0.37996367 10.3753971 -0.5625 8.0625 C-0.71912109 6.13083984 -0.71912109 6.13083984 -0.87890625 4.16015625 C-0.91886719 3.11730469 -0.95882812 2.07445312 -1 1 C-0.67 0.67 -0.34 0.34 0 0 Z " fill="#BFA475" transform="translate(205,188)"/>
<path d="M0 0 C-1.67872725 3.96790076 -4.08277074 6.86931494 -7 10 C-7.99 10 -8.98 10 -10 10 C-9.43867066 6.4628562 -8.30442253 5.00738321 -5.5625 2.75 C-4.94503906 2.22921875 -4.32757813 1.7084375 -3.69140625 1.171875 C-2 0 -2 0 0 0 Z " fill="#D3BE78" transform="translate(118,79)"/>
<path d="M0 0 C2 3 2 3 3 6 C1.8125 9.125 1.8125 9.125 0 12 C-2.1875 12.875 -2.1875 12.875 -4 13 C-2.77443263 8.62297367 -1.46939453 4.30322683 0 0 Z " fill="#9D7233" transform="translate(233,159)"/>
<path d="M0 0 C0.66 0.33 1.32 0.66 2 1 C1.42110619 4.28754511 0.45171589 5.93672495 -1.9375 8.25 C-2.46214844 8.77078125 -2.98679687 9.2915625 -3.52734375 9.828125 C-5 11 -5 11 -7 11 C-5.72278474 6.00724943 -3.82669043 3.42388092 0 0 Z " fill="#BA9B5B" transform="translate(91,120)"/>
<path d="M0 0 C-0.30618405 3.67420866 -0.75771784 4.78135513 -3.5625 7.3125 C-4.366875 7.869375 -5.17125 8.42625 -6 9 C-6.66 7.68 -7.32 6.36 -8 5 C-3.375 0 -3.375 0 0 0 Z " fill="#DFCE8F" transform="translate(124,226)"/>
<path d="M0 0 C0.33 0 0.66 0 1 0 C1.33 7.26 1.66 14.52 2 22 C1.01 22.33 0.02 22.66 -1 23 C-2.125 19.25 -2.125 19.25 -1 17 C-0.76725791 14.12089412 -0.58027243 11.25853505 -0.4375 8.375 C-0.39431641 7.57320312 -0.35113281 6.77140625 -0.30664062 5.9453125 C-0.20048543 3.9637489 -0.09973145 1.98189729 0 0 Z " fill="#905D11" transform="translate(51,133)"/>
<path d="M0 0 C2.31 1.98 4.62 3.96 7 6 C6.67 6.99 6.34 7.98 6 9 C2.2047869 7.50902342 0.38957269 5.24299151 -2 2 C-1.34 1.34 -0.68 0.68 0 0 Z " fill="#C3A868" transform="translate(93,140)"/>
<path d="M0 0 C0.99 0.99 1.98 1.98 3 3 C-0.75 9.875 -0.75 9.875 -3 11 C-3.75 9.4375 -3.75 9.4375 -4 7 C-2.86915563 4.49713591 -1.47860484 2.32992278 0 0 Z " fill="#BDA062" transform="translate(200,220)"/>
<path d="M0 0 C1.34173403 0.92543709 2.67320159 1.86577405 4 2.8125 C5.11375 3.59560547 5.11375 3.59560547 6.25 4.39453125 C6.8275 4.92433594 7.405 5.45414063 8 6 C8 6.99 8 7.98 8 9 C5.3364031 8.64005447 3.41816548 8.28838998 1.1875 6.75 C-0.38765088 4.42872502 -0.08538128 2.75017605 0 0 Z " fill="#E5D78E" transform="translate(126,205)"/>
<path d="M0 0 C0.66 0.33 1.32 0.66 2 1 C1.01 1.66 0.02 2.32 -1 3 C-1.33 3.99 -1.66 4.98 -2 6 C-4.33116317 7.60769874 -5.42816426 8.09530596 -8.25 7.625 C-8.8275 7.41875 -9.405 7.2125 -10 7 C-7.5447806 2.81168455 -4.50419967 1.55599625 0 0 Z " fill="#D1BC78" transform="translate(183,238)"/>
<path d="M0 0 C2.125 0.9375 2.125 0.9375 4 2 C3.67 3.32 3.34 4.64 3 6 C1.0625 6.5625 1.0625 6.5625 -1 7 C-2 6 -2 6 -2.0625 3.4375 C-2.041875 2.633125 -2.02125 1.82875 -2 1 C-1.34 0.67 -0.68 0.34 0 0 Z " fill="#F9F6ED" transform="translate(179,159)"/>
<path d="M0 0 C0.556875 0.66 1.11375 1.32 1.6875 2 C3.84062308 4.25492211 3.84062308 4.25492211 6.75 4.25 C7.4925 4.1675 8.235 4.085 9 4 C8.67 5.65 8.34 7.3 8 9 C5.3364031 8.64005447 3.41816548 8.28838998 1.1875 6.75 C-0.39364795 4.41988723 -0.22337696 2.75498245 0 0 Z " fill="#B49354" transform="translate(203,151)"/>
<path d="M0 0 C1.67542976 0.28604898 3.34385343 0.61781233 5 1 C5 2.32 5 3.64 5 5 C3.35 5.33 1.7 5.66 0 6 C-0.38218767 4.34385343 -0.71395102 2.67542976 -1 1 C-0.67 0.67 -0.34 0.34 0 0 Z " fill="#F4F0E8" transform="translate(207,150)"/>
<path d="M0 0 C1.65 0.33 3.3 0.66 5 1 C4.67 2.65 4.34 4.3 4 6 C2.35 5.67 0.7 5.34 -1 5 C-0.67 3.35 -0.34 1.7 0 0 Z " fill="#FAF9F0" transform="translate(164,219)"/>
<path d="M0 0 C0.33 0 0.66 0 1 0 C1 6.6 1 13.2 1 20 C0.01 20 -0.98 20 -2 20 C-1.34 13.4 -0.68 6.8 0 0 Z " fill="#C2A876" transform="translate(83,191)"/>
<path d="M0 0 C1.65 0.33 3.3 0.66 5 1 C4.67 2.65 4.34 4.3 4 6 C2.35 5.67 0.7 5.34 -1 5 C-0.67 3.35 -0.34 1.7 0 0 Z " fill="#F8F5EE" transform="translate(197,118)"/>
<path d="M0 0 C1.32 0 2.64 0 4 0 C4.33 1.65 4.66 3.3 5 5 C3.35 5.33 1.7 5.66 0 6 C-0.38218767 4.34385343 -0.71395102 2.67542976 -1 1 C-0.67 0.67 -0.34 0.34 0 0 Z " fill="#FBF9F0" transform="translate(159,137)"/>
<path d="M0 0 C1.65 0 3.3 0 5 0 C5.625 1.875 5.625 1.875 6 4 C5.34 4.66 4.68 5.32 4 6 C1.875 5.625 1.875 5.625 0 5 C0 3.35 0 1.7 0 0 Z " fill="#FAF8F0" transform="translate(168,118)"/>
<path d="M0 0 C0.33 1.32 0.66 2.64 1 4 C-4.14285714 8.42857143 -4.14285714 8.42857143 -8 9 C-6.90101298 5.70303895 -6.05402613 4.95329411 -3.4375 2.8125 C-2.79683594 2.28269531 -2.15617188 1.75289062 -1.49609375 1.20703125 C-0.75552734 0.60955078 -0.75552734 0.60955078 0 0 Z " fill="#C9B06D" transform="translate(189,234)"/>
<path d="M0 0 C0.66 0.99 1.32 1.98 2 3 C5.08365871 3.2502157 5.08365871 3.2502157 8 3 C7.34 4.65 6.68 6.3 6 8 C3.625 7.75 3.625 7.75 1 7 C-0.375 5.125 -0.375 5.125 -1 3 C-0.67 2.01 -0.34 1.02 0 0 Z " fill="#D3BE7C" transform="translate(175,190)"/>
<path d="M0 0 C3.36720387 1.39332574 4.9859524 2.9789286 7 6 C6.01 6.66 5.02 7.32 4 8 C2.35 6.35 0.7 4.7 -1 3 C-0.67 2.01 -0.34 1.02 0 0 Z " fill="#BC9E63" transform="translate(199,182)"/>
<path d="M0 0 C3.82946843 1.45255699 5.12050295 3.42895561 7 7 C5.68 7.33 4.36 7.66 3 8 C0.9375 5.6875 0.9375 5.6875 -1 3 C-0.67 2.01 -0.34 1.02 0 0 Z " fill="#A2783C" transform="translate(224,101)"/>
<path d="M0 0 C2.0625 0.4375 2.0625 0.4375 4 1 C3.67 2.65 3.34 4.3 3 6 C1.35 5.67 -0.3 5.34 -2 5 C-1.125 1.125 -1.125 1.125 0 0 Z " fill="#FCFAF4" transform="translate(169,64)"/>
<path d="M0 0 C2.0625 0.4375 2.0625 0.4375 4 1 C4 2.32 4 3.64 4 5 C2.35 5.33 0.7 5.66 -1 6 C-1.042721 4.33388095 -1.04063832 2.66617115 -1 1 C-0.67 0.67 -0.34 0.34 0 0 Z " fill="#FBFAF3" transform="translate(178,188)"/>
<path d="M0 0 C2.95662966 0.22743305 4.55033688 0.61235938 6.8125 2.5625 C7.204375 3.036875 7.59625 3.51125 8 4 C6.02 4.99 6.02 4.99 4 6 C2.02 4.68 0.04 3.36 -2 2 C-1.34 1.34 -0.68 0.68 0 0 Z " fill="#AD8749" transform="translate(211,92)"/>
<path d="M0 0 C2.0625 0.4375 2.0625 0.4375 4 1 C4 2.32 4 3.64 4 5 C2.68 5.33 1.36 5.66 0 6 C-0.38218767 4.34385343 -0.71395102 2.67542976 -1 1 C-0.67 0.67 -0.34 0.34 0 0 Z " fill="#FCFBF6" transform="translate(169,88)"/>
<path d="M0 0 C0.625 1.8125 0.625 1.8125 1 4 C0.01 5.485 0.01 5.485 -1 7 C-4.125 7.1875 -4.125 7.1875 -7 7 C-6.67 6.34 -6.34 5.68 -6 5 C-5.34 5 -4.68 5 -4 5 C-3.67 4.01 -3.34 3.02 -3 2 C-2.01 1.34 -1.02 0.68 0 0 Z " fill="#D6C17B" transform="translate(176,66)"/>
<path d="M0 0 C-2.52956528 3.0916909 -5.22454612 3.90931332 -9 5 C-9.33 3.68 -9.66 2.36 -10 1 C-3.375 -1.125 -3.375 -1.125 0 0 Z " fill="#D5C17C" transform="translate(119,42)"/>
<path d="M0 0 C2.35953094 2.35953094 2.49141413 3.77895617 3 7 C2.01 7.33 1.02 7.66 0 8 C-3 3.25 -3 3.25 -3 1 C-2.01 0.67 -1.02 0.34 0 0 Z " fill="#9D7237" transform="translate(56,164)"/>
<path d="M0 0 C0.433125 0.639375 0.86625 1.27875 1.3125 1.9375 C2.91239177 4.26746003 2.91239177 4.26746003 6 5 C6 5.66 6 6.32 6 7 C3.625 7.625 3.625 7.625 1 8 C-1 6 -1 6 -1.1875 3.4375 C-1 1 -1 1 0 0 Z " fill="#BEA05E" transform="translate(194,119)"/>
<path d="M0 0 C2.31 0.33 4.62 0.66 7 1 C7.33 1.99 7.66 2.98 8 4 C5.03 4 2.06 4 -1 4 C-0.67 2.68 -0.34 1.36 0 0 Z " fill="#E3D388" transform="translate(125,245)"/>
<path d="M0 0 C0.66 0 1.32 0 2 0 C3.76462683 3.08809695 4 4.23312136 4 8 C2.0625 7.3125 2.0625 7.3125 0 6 C-0.8125 3.4375 -0.8125 3.4375 -1 1 C-0.67 0.67 -0.34 0.34 0 0 Z " fill="#D3BD76" transform="translate(174,161)"/>
<path d="M0 0 C3.96 1.98 3.96 1.98 8 4 C7.34 4.66 6.68 5.32 6 6 C2.875 5.625 2.875 5.625 0 5 C0 3.35 0 1.7 0 0 Z " fill="#AD8849" transform="translate(72,184)"/>
<path d="M0 0 C0.33 1.32 0.66 2.64 1 4 C-0.65 5.32 -2.3 6.64 -4 8 C-4.625 6.125 -4.625 6.125 -5 4 C-4.34 3.34 -3.68 2.68 -3 2 C-2.01 2 -1.02 2 0 2 C0 1.34 0 0.68 0 0 Z " fill="#BEA160" transform="translate(94,177)"/>
<path d="M0 0 C-0.1875 1.875 -0.1875 1.875 -1 4 C-3.5625 5.25 -3.5625 5.25 -6 6 C-6 4.68 -6 3.36 -6 2 C-3 0 -3 0 0 0 Z " fill="#D3BE7A" transform="translate(114,160)"/>
<path d="M0 0 C1.9375 0.6875 1.9375 0.6875 4 2 C4.75 4.625 4.75 4.625 5 7 C1.34683329 5.75023244 0.21934164 5.32901247 -2 2 C-1.34 2 -0.68 2 0 2 C0 1.34 0 0.68 0 0 Z " fill="#C9B070" transform="translate(99,234)"/>
<path d="M0 0 C2.31 0 4.62 0 7 0 C7 0.66 7 1.32 7 2 C7.66 2.33 8.32 2.66 9 3 C6.03 3 3.06 3 0 3 C0 2.01 0 1.02 0 0 Z " fill="#CDB56E" transform="translate(177,90)"/>
<path d="M0 0 C0.99 0 1.98 0 3 0 C3 2.97 3 5.94 3 9 C2.34 8.67 1.68 8.34 1 8 C0.40644386 5.35139573 0.25790731 2.70802678 0 0 Z " fill="#AE8A42" transform="translate(205,81)"/>
<path d="M0 0 C2.3773161 2.3773161 2.67028521 3.70285207 3 7 C2.34 7.66 1.68 8.32 1 9 C-1 6 -1 6 -0.625 2.8125 C-0.41875 1.884375 -0.2125 0.95625 0 0 Z " fill="#93611F" transform="translate(236,122)"/>
<path d="M0 0 C-0.33 1.98 -0.66 3.96 -1 6 C-2.32 5.67 -3.64 5.34 -5 5 C-4.625 3.0625 -4.625 3.0625 -4 1 C-2 0 -2 0 0 0 Z " fill="#B69556" transform="translate(87,69)"/>
<path d="M0 0 C0.99 0.33 1.98 0.66 3 1 C2.34 2.32 1.68 3.64 1 5 C0.01 5 -0.98 5 -2 5 C-1.125 1.125 -1.125 1.125 0 0 Z " fill="#E1D188" transform="translate(126,155)"/>
<path d="M0 0 C2.475 0.99 2.475 0.99 5 2 C4.01 2.99 3.02 3.98 2 5 C1.01 4.34 0.02 3.68 -1 3 C-0.67 2.01 -0.34 1.02 0 0 Z " fill="#C8AE6D" transform="translate(186,48)"/>
<path d="M0 0 C2 3 2 3 1.625 5.6875 C1.41875 6.450625 1.2125 7.21375 1 8 C0.67 7.34 0.34 6.68 0 6 C-0.66 6 -1.32 6 -2 6 C-1.34 4.02 -0.68 2.04 0 0 Z " fill="#B99A60" transform="translate(84,208)"/>
</svg>
